<svg width="24" height="21" viewBox="0 0 24 21" fill="none" xmlns="http://www.w3.org/2000/svg">
<path fill-rule="evenodd" clip-rule="evenodd" d="M23.4865 0.0552779C24.0659 0.473428 19.5968 19.9871 19.2933 20.1823C19.1278 20.2938 17.5278 19.2902 13.8587 16.5304C12.4518 15.4711 12.9759 15.499 9.5827 18.872C8.92062 19.5132 8.92062 19.5132 8.50681 18.3424C8.06542 17.1716 7.18264 14.8299 6.74124 13.6591C6.29985 12.4883 6.29985 12.4883 5.22396 11.9308C1.96869 10.2581 0.258301 9.4776 0.258301 9.19884C0.258301 8.52979 22.8245 -0.418626 23.4865 0.0552779ZM8.78268 15.276C8.50681 14.6348 7.95507 12.9901 7.70679 12.1816C7.43092 11.3453 7.43092 11.3453 9.44477 9.97938C21.9141 1.53274 21.9968 0.780072 11.1552 11.2896C9.03096 13.3525 9.52753 12.6277 9.22407 14.9972C9.1689 15.3596 9.11372 15.6384 9.03096 15.6105C8.97579 15.6105 8.89303 15.499 8.78268 15.276Z" fill="white"/>
</svg>
