<svg width="229" height="60" viewBox="0 0 229 60" fill="none" xmlns="http://www.w3.org/2000/svg">
<path d="M40.0223 34.3514C40.3481 34.6785 40.6414 35.0056 40.9346 35.3655C40.9998 35.4309 41.0325 35.4964 41.0976 35.5618C40.9998 35.4309 41.1953 35.6927 41.0976 35.5618C41.1302 35.5945 41.1627 35.6599 41.1953 35.6927C41.3256 35.8562 41.456 36.0525 41.5537 36.2488C41.7492 36.576 41.9447 36.9031 42.1402 37.263C42.2053 37.4266 42.3032 37.5902 42.3683 37.721C42.4009 37.8192 42.4335 37.8846 42.466 37.9828C42.3683 37.7537 42.4986 38.0809 42.5312 38.1463C42.7918 38.8334 42.9548 39.5204 43.0525 40.24C43.02 40.0111 43.0525 40.3055 43.0525 40.371C43.0525 40.4691 43.0851 40.5345 43.0851 40.6326C43.0851 40.7962 43.1177 40.9925 43.1177 41.1561C43.1177 41.516 43.1177 41.8431 43.0851 42.203C43.0851 42.3012 43.0851 42.3666 43.0525 42.4648C43.0525 42.4974 43.0525 42.5629 43.0525 42.5956C43.0851 42.3666 43.0525 42.5301 43.0525 42.5629C43.02 42.7264 42.9874 42.89 42.9548 43.0863C42.8896 43.4462 42.7918 43.8061 42.6941 44.1332C42.6616 44.2968 42.5963 44.4276 42.5637 44.5912C42.5312 44.6894 42.4986 44.7548 42.466 44.8202C42.4335 44.8857 42.3032 45.1801 42.4009 44.9511C42.2705 45.2782 42.1076 45.5727 41.9773 45.8999C41.8144 46.1943 41.6514 46.5214 41.456 46.8158C41.3583 46.9468 41.293 47.0776 41.1953 47.2085C41.1302 47.2739 41.0976 47.3393 41.0325 47.4375C40.9998 47.4702 40.9672 47.5029 40.9672 47.5356C40.9998 47.5029 41.1302 47.3393 40.9672 47.5356C40.5437 48.0918 40.055 48.6152 39.5336 49.0732C39.4032 49.204 39.273 49.3023 39.1427 49.4331C39.0774 49.4986 39.0123 49.5313 38.9471 49.5967C38.9146 49.6294 38.9146 49.6294 38.882 49.6621C39.0774 49.4986 38.9146 49.6294 38.8494 49.6621C38.5562 49.8912 38.2629 50.0874 37.9697 50.2837C37.6438 50.48 37.318 50.6763 36.9922 50.8399C36.8292 50.9053 36.699 50.9707 36.5361 51.0689C36.4383 51.1015 36.3731 51.1343 36.2754 51.167C36.1124 51.2325 36.4383 51.1015 36.2754 51.167C36.2103 51.1997 36.145 51.1997 36.1124 51.2325C35.4282 51.4942 34.6789 51.6905 33.962 51.8213C33.7991 51.854 33.6036 51.8868 33.4407 51.8868C33.6688 51.854 33.343 51.8868 33.3103 51.8868C33.2126 51.8868 33.0823 51.9195 32.9845 51.9195C32.5936 51.9522 32.2026 51.9522 31.8116 51.9522C31.4207 51.9522 30.997 51.9195 30.6061 51.854C30.4431 51.8213 30.7689 51.8868 30.6061 51.854C30.5409 51.854 30.5083 51.854 30.4431 51.8213C30.3454 51.8213 30.2477 51.7887 30.15 51.7559C29.9544 51.7232 29.7263 51.6905 29.5309 51.625C29.1072 51.5269 28.6837 51.4288 28.2927 51.2978C28.0972 51.2325 27.8691 51.167 27.6737 51.0689C27.5758 51.0362 27.4781 51.0034 27.3478 50.938C27.5107 51.0034 27.3478 50.938 27.3153 50.938C27.25 50.9053 27.1849 50.8726 27.1197 50.8399C26.24 50.4473 25.3929 49.9565 24.5783 49.4331C24.3829 49.3023 24.1873 49.1714 23.9918 49.0405C23.8941 48.9751 23.7638 48.8769 23.666 48.8115C23.5031 48.6807 23.7964 48.9096 23.6008 48.7788C23.5357 48.7133 23.4706 48.6807 23.3727 48.6152C22.9492 48.2554 22.5257 47.8955 22.102 47.5029C20.0168 45.5727 18.518 43.2826 17.2147 40.7309C15.8788 38.0809 14.8688 35.3328 13.7935 32.5847C12.7835 30.0329 11.7735 27.4157 10.3073 25.0928C9.65567 24.0459 8.87364 22.999 7.96133 22.1484C7.21194 21.4288 6.26705 20.8071 5.22442 20.6436C4.40986 20.5127 3.56272 20.6108 2.87849 21.1015C2.16168 21.625 1.80328 22.4102 1.73811 23.2935C1.67295 24.275 2.03135 25.2564 2.55266 26.0744C3.17173 27.0885 4.01887 27.9719 4.96375 28.6915C8.15683 31.276 12.2297 32.1593 16.2698 32.3557C20.3752 32.552 24.4806 32.0612 28.586 31.8322C30.4431 31.7341 32.3329 31.7014 34.1901 31.8977C34.2878 31.8977 34.4182 31.9304 34.5159 31.9304C34.6463 31.9304 34.5159 31.9304 34.4833 31.9304C34.5485 31.9304 34.5811 31.9304 34.6463 31.963C34.8743 31.9958 35.1024 32.0285 35.3305 32.0612C35.7215 32.1267 36.1125 32.2248 36.5034 32.3229C36.8945 32.4211 37.2529 32.552 37.6113 32.6828C37.6438 32.7155 37.709 32.7155 37.7416 32.7483C37.5461 32.6828 37.709 32.7155 37.7416 32.7483C37.8394 32.781 37.9045 32.8137 38.0022 32.8791C38.1652 32.9446 38.3281 33.0427 38.491 33.1409C38.8168 33.3045 39.1101 33.5008 39.4032 33.697C39.4359 33.7297 39.4685 33.7624 39.5011 33.7952C39.3055 33.6643 39.4685 33.7624 39.5011 33.7952C39.5662 33.8605 39.6313 33.926 39.7291 33.9587C39.7291 34.0896 39.892 34.2204 40.0223 34.3514C40.7066 35.0384 41.7492 33.9915 41.065 33.3045C38.5887 30.8508 34.9396 30.3601 31.6161 30.3273C27.5758 30.2619 23.5683 30.818 19.528 30.9162C18.518 30.9489 17.4754 30.9489 16.4328 30.9162C15.9114 30.8835 15.3901 30.8508 14.8688 30.818C14.6407 30.7853 14.4126 30.7853 14.1846 30.7527C14.0542 30.7527 13.9239 30.7199 13.8262 30.7199C13.7935 30.7199 13.5981 30.6872 13.761 30.7199C13.6632 30.7199 13.5981 30.6872 13.5004 30.6872C12.5228 30.5564 11.578 30.3601 10.6331 30.0983C10.1769 29.9674 9.72081 29.8039 9.26463 29.6403C9.19946 29.6076 9.16688 29.6076 9.10172 29.5748C8.90623 29.5095 9.23205 29.6403 9.06914 29.5422C8.97139 29.5095 8.84106 29.444 8.74331 29.4113C8.51523 29.3132 8.31974 29.215 8.09166 29.1169C7.66809 28.8878 7.24452 28.6589 6.85353 28.3971C6.65804 28.2663 6.46254 28.1354 6.26705 28.0045C6.23447 27.9719 5.94123 27.7428 6.07156 27.8736C5.97381 27.8083 5.87606 27.7101 5.77832 27.6447C5.38733 27.3175 4.99634 26.9577 4.63793 26.5651C4.54019 26.4342 4.40986 26.336 4.31211 26.2052C4.24695 26.1397 4.21436 26.0744 4.1492 26.0089C4.1492 26.0089 3.98629 25.8126 4.08404 25.9108C3.88854 25.6817 3.72563 25.42 3.5953 25.1256C3.53014 25.0275 3.49756 24.9293 3.43239 24.8312C3.39981 24.7657 3.36723 24.733 3.36723 24.6676C3.26947 24.4713 3.39981 24.7984 3.33465 24.6348C3.23689 24.4058 3.17173 24.1769 3.13914 23.9478C3.13914 23.8824 3.10656 23.6207 3.10656 23.8497C3.10656 23.7515 3.07398 23.6534 3.07398 23.5552C3.07398 23.4571 3.07398 23.3589 3.07398 23.2935C3.0414 23.4571 3.07398 23.13 3.07398 23.2935C3.07398 23.2281 3.10656 23.1953 3.10656 23.13C3.13914 23.0645 3.13914 22.9664 3.17173 22.9009C3.23689 22.7046 3.10656 23.0318 3.20431 22.8682C3.23689 22.8028 3.26947 22.7374 3.33465 22.6719C3.33465 22.6393 3.36723 22.5738 3.39981 22.5738C3.30205 22.6719 3.30205 22.7046 3.33465 22.6393C3.33465 22.6065 3.36723 22.6065 3.39981 22.5738C3.46497 22.5083 3.49756 22.4757 3.56272 22.4102C3.69305 22.2794 3.43239 22.4757 3.5953 22.3775C3.66047 22.3447 3.72563 22.2794 3.7908 22.2466C3.82338 22.2139 3.85596 22.2139 3.88854 22.1812C3.69305 22.2794 3.82338 22.2139 3.88854 22.1812C3.95371 22.1484 4.05145 22.1484 4.11662 22.1158C4.1492 22.1158 4.21436 22.1158 4.24695 22.0831C4.05145 22.1158 4.18178 22.0831 4.21436 22.0831C4.27953 22.0831 4.34469 22.0831 4.44244 22.0831C4.5076 22.0831 4.83343 22.1158 4.60535 22.0831C4.80084 22.1158 4.99634 22.1484 5.19184 22.2139C5.22442 22.2139 5.48508 22.3447 5.32217 22.2466C5.4525 22.312 5.55024 22.3447 5.68057 22.4102C5.90865 22.541 6.10414 22.6719 6.29963 22.8028C6.46254 22.9337 6.1693 22.7046 6.3648 22.8355C6.42996 22.8682 6.46254 22.9337 6.52771 22.9664C6.62545 23.0645 6.75578 23.1627 6.85353 23.2608C7.27711 23.6862 7.66809 24.1114 8.0265 24.5694C8.18941 24.7657 7.92875 24.4385 8.09166 24.6348C8.12424 24.7003 8.18941 24.7657 8.22199 24.8312C8.31974 24.962 8.3849 25.0928 8.48265 25.191C8.67815 25.4527 8.84106 25.7472 9.00397 26.0089C9.32979 26.5651 9.65567 27.1539 9.94881 27.7428C10.5353 28.9205 11.1218 30.2292 11.578 31.407C13.7935 36.8704 15.5856 42.7919 19.6258 47.2412C22.3301 50.2509 26.0446 52.7046 30.1173 53.2608C33.2778 53.6862 36.5361 52.9664 39.1427 51.1343C41.5863 49.4331 43.4761 46.914 44.2254 44.0024C44.9749 40.9925 44.421 37.8192 42.7267 35.2347C42.2379 34.5149 41.6841 33.8279 41.065 33.2062C40.3808 32.6174 39.3381 33.6643 40.0223 34.3514Z" fill="black"/>
<path d="M42.1729 46.7503C41.7168 47.2083 41.228 47.6663 40.7393 48.0916C40.218 48.5169 39.827 48.8441 39.3382 49.2039C38.3282 49.9564 37.253 50.6107 36.1126 51.1669C34.9723 51.7558 34.0274 52.1483 32.8544 52.5409C31.7139 52.9008 30.5411 53.1952 29.3355 53.3915C24.7414 54.1767 19.7563 53.4897 15.5206 51.5267C10.9917 49.4002 7.24465 45.8997 4.83356 41.5486C3.66059 39.422 2.84604 37.2301 2.35731 34.8092C2.09664 33.5987 1.96631 32.5845 1.90115 31.3413C1.83598 30.1309 1.86857 28.9204 1.96631 27.7427C2.03148 27.1211 2.09664 26.663 2.1944 26.0087C2.29214 25.4198 2.42247 24.831 2.5528 24.2748C2.71571 23.6859 2.87862 23.0644 3.07412 22.4754C3.17186 22.2138 3.26961 21.9193 3.36736 21.6576C3.49768 21.3304 3.56285 21.1341 3.66059 20.9052C4.14934 19.7601 4.70323 18.6804 5.35488 17.6009C6.03911 16.4885 6.69075 15.5726 7.50532 14.6565C8.35246 13.6751 9.26476 12.759 10.2422 11.9412C10.7636 11.4831 11.1545 11.1887 11.6759 10.8288C12.1971 10.4689 12.7185 10.1091 13.2398 9.78192C15.3576 8.4733 17.5081 7.58998 19.9192 7.00112C21.0921 6.70668 22.2326 6.51038 23.3729 6.41224C24.5784 6.31408 25.784 6.28137 26.957 6.3468C28.1951 6.41224 29.2052 6.54309 30.4107 6.80482C31.5837 7.06654 32.7567 7.3937 33.897 7.81899C34.1902 7.91714 34.3532 7.98258 34.5812 8.08072C34.8744 8.21158 35.1677 8.34244 35.4284 8.4733C35.9823 8.73503 36.5688 9.02947 37.0901 9.3239C37.6114 9.61834 38.1328 9.9455 38.654 10.2726C38.9147 10.4362 39.1754 10.6325 39.4361 10.8288C39.7292 11.0578 39.827 11.1232 40.1203 11.3523C41.1303 12.1701 42.0752 13.0207 42.9223 13.9695C43.802 14.9509 44.4862 15.8015 45.1706 16.8812C47.8423 20.9378 49.1781 25.6816 49.0804 30.4907C48.9826 35.2999 47.4187 40.0109 44.5188 43.9695C44.2908 44.2639 44.2257 44.3621 43.9976 44.6565C43.802 44.8856 43.6392 45.1145 43.4436 45.3435C43.0527 45.867 42.6291 46.325 42.1729 46.7503C41.4887 47.4373 42.5639 48.4842 43.2155 47.7972C46.8648 44.1331 49.3411 39.3567 50.2207 34.2203C51.0679 29.1822 50.3837 23.9477 48.2332 19.3348C46.0176 14.5583 42.2706 10.5344 37.6766 7.94985C33.2779 5.49621 28.0973 4.38388 23.0796 4.87461C17.9316 5.36534 13.0117 7.45913 9.06926 10.8615C5.15938 14.2966 2.32473 18.9422 1.08659 24.0131C-0.0863733 28.9204 0.206866 34.1549 1.96631 38.8986C3.85609 43.8387 7.24465 48.0916 11.6433 51.036C15.879 53.8496 20.9618 55.3217 26.0121 55.1909C31.095 55.0927 36.1126 53.3915 40.218 50.3817C41.2932 49.5965 42.2706 48.7459 43.2155 47.8299C43.8998 47.1428 42.8571 46.0633 42.1729 46.7503Z" fill="black"/>
<path d="M34.9723 33.1407C35.0374 33.206 35.07 33.2388 35.1026 33.3042C35.1351 33.337 35.2003 33.4351 35.1026 33.3042C35.0048 33.1734 35.1026 33.3042 35.1351 33.337C35.2328 33.4678 35.2981 33.5986 35.3632 33.7295L35.3958 33.8277C35.3632 33.8277 35.3307 33.6314 35.3632 33.7622C35.3958 33.8277 35.4284 33.9258 35.4284 33.9912C35.461 34.1548 35.4935 34.3184 35.5261 34.482C35.5261 34.5147 35.5587 34.6783 35.5261 34.5147C35.4935 34.3511 35.5261 34.5474 35.5261 34.5802C35.5261 34.6783 35.5261 34.7764 35.5588 34.8418C35.5588 35.0381 35.5588 35.2017 35.5588 35.398C35.5588 35.5943 35.5588 35.7905 35.4935 35.9868C35.5588 35.7252 35.4935 36.0523 35.461 36.1504C35.4284 36.2486 35.4284 36.3795 35.3958 36.4777C35.2981 36.9356 35.2003 37.3609 35.07 37.7862C35.0048 38.0153 34.907 38.2442 34.8419 38.4732C34.8093 38.6041 34.7442 38.7023 34.7116 38.8331C34.679 38.8985 34.679 38.9312 34.6465 38.9967C34.5812 39.193 34.7116 38.8659 34.6139 39.0622C34.1902 40.0763 33.7016 41.0578 33.1476 42.0065C32.8544 42.4973 32.5286 42.988 32.2027 43.4787C32.0398 43.7404 31.8769 43.9694 31.6814 44.2312C31.6162 44.3293 31.5185 44.4601 31.4208 44.5583C31.3881 44.6237 31.323 44.6564 31.2904 44.7219C31.2578 44.7545 31.2578 44.7873 31.2253 44.82C31.1276 44.9509 31.323 44.6892 31.2253 44.82C30.4759 45.7688 29.6939 46.6848 28.8468 47.5681C28.4232 47.9934 27.9671 48.4187 27.5108 48.8113C27.2828 49.0076 27.0873 49.2039 26.8592 49.3675C26.7615 49.4656 26.6312 49.5638 26.5334 49.6292C26.5008 49.6292 26.338 49.7927 26.4357 49.6946C26.5334 49.6292 26.4357 49.6946 26.4031 49.6946C26.3705 49.7274 26.338 49.76 26.2727 49.7927C25.3931 50.447 24.4482 51.0359 23.4381 51.5267C23.3077 51.5921 23.21 51.6249 23.0796 51.6902C23.0145 51.723 22.9819 51.723 22.9168 51.7557C22.7212 51.8538 23.0471 51.723 22.8516 51.7884C22.6235 51.8865 22.3628 51.952 22.1348 52.0501C21.6461 52.2137 21.1573 52.3119 20.6686 52.41C20.6035 52.41 20.5709 52.41 20.5056 52.4427C20.6686 52.41 20.5709 52.4427 20.4731 52.4427C20.3428 52.4427 20.2125 52.4754 20.0821 52.4754C19.854 52.4754 19.626 52.5082 19.3653 52.4754C19.2349 52.4754 19.1372 52.4755 19.0069 52.4427C18.9418 52.4427 18.8765 52.4427 18.8114 52.41C18.616 52.3772 18.9418 52.4427 18.7788 52.41C18.5507 52.3772 18.29 52.3445 18.062 52.2791C17.8339 52.2137 17.6058 52.1483 17.3778 52.0828C17.3126 52.0501 17.2474 52.0501 17.2148 52.0174C17.1171 51.9847 17.3452 52.0828 17.28 52.0501C17.2474 52.0501 17.2148 52.0174 17.2148 52.0174C17.0846 51.952 16.9867 51.9193 16.8565 51.8538C16.6283 51.723 16.4003 51.5921 16.1722 51.4613C16.0745 51.3958 15.9767 51.3303 15.879 51.265C15.8138 51.2322 15.7813 51.1995 15.716 51.1668C15.6183 51.1014 15.7487 51.1995 15.7487 51.1995C15.716 51.1668 15.6835 51.134 15.6509 51.1014C15.2273 50.7743 14.8364 50.3817 14.478 49.9563C14.4453 49.9237 14.4127 49.8582 14.3802 49.8255C14.2825 49.7274 14.478 49.9563 14.3802 49.7927C14.315 49.6946 14.2173 49.5638 14.1522 49.4656C14.0218 49.2367 13.8589 49.0076 13.7611 48.7786C13.6308 48.5169 13.5005 48.2879 13.4027 48.0261C13.3701 47.9607 13.3376 47.8952 13.305 47.8299C13.2398 47.6989 13.3701 47.9607 13.2724 47.7644C13.2073 47.6336 13.1747 47.47 13.1095 47.3392C12.914 46.7502 12.7511 46.1613 12.6208 45.5725C12.4904 44.9509 12.3601 44.2966 12.2624 43.6423C12.2624 43.5768 12.2298 43.4787 12.2298 43.4132C12.2298 43.3805 12.2298 43.3479 12.2298 43.2824C12.1971 43.1188 12.1971 42.9225 12.1646 42.7589C12.132 42.3991 12.0994 42.0392 12.0668 41.6793C11.8387 38.6368 11.9691 35.5943 12.1646 32.5517C12.3601 29.5747 12.6859 26.5648 12.9466 23.5877C13.142 21.2977 13.3701 18.9421 13.2073 16.652C13.142 15.8342 13.0443 14.9836 12.6859 14.2312C12.3601 13.5442 11.7085 12.988 11.0242 12.6935C9.23219 11.9084 7.40758 13.0861 6.13686 14.4274C4.37741 16.2923 3.17186 18.6477 2.25956 21.0032C1.24951 23.555 0.565282 26.2377 0.434954 28.9531C0.337207 31.2432 0.630446 33.7622 2.12924 35.5616C2.91121 36.5103 3.98643 37.3282 5.06164 37.9171C6.10428 38.4732 7.21208 38.8659 8.38504 39.0622C10.731 39.4219 13.0769 39.0294 15.2925 38.3097C17.6384 37.5572 19.8866 36.4449 22.1022 35.3653C23.1775 34.8418 24.2201 34.3184 25.2952 33.7949C25.8166 33.5659 26.3054 33.337 26.8266 33.1079C26.957 33.0424 27.0873 33.0098 27.185 32.9443C27.2828 32.9116 27.0547 33.0098 27.1525 32.9771C27.185 32.9771 27.2176 32.9443 27.2503 32.9443C27.3154 32.9116 27.3806 32.8789 27.4783 32.8462C27.739 32.748 27.9671 32.6499 28.2277 32.5517C28.6838 32.3882 29.1726 32.2573 29.6287 32.1265C29.8568 32.061 30.0848 32.0283 30.313 31.9629C30.4107 31.9302 30.5411 31.9302 30.6388 31.8974C30.7039 31.8974 30.7365 31.8974 30.8017 31.8647C30.8343 31.8647 30.8669 31.8647 30.8669 31.8647C30.9972 31.832 30.6713 31.8974 30.8343 31.8647C31.2578 31.832 31.6814 31.7993 32.105 31.832C32.2027 31.832 32.3005 31.832 32.3983 31.8647C32.3005 31.832 32.5611 31.8647 32.3983 31.8647C32.4634 31.8647 32.5286 31.8974 32.5611 31.8974C32.7567 31.9302 32.9521 31.9629 33.1476 32.0283C33.2453 32.061 33.3432 32.0938 33.4409 32.1265C33.4735 32.1265 33.5386 32.1592 33.5712 32.1919C33.4083 32.1265 33.5386 32.1919 33.5712 32.1919C33.7341 32.2573 33.9296 32.3554 34.0925 32.4536C34.1902 32.519 34.2554 32.5517 34.3532 32.6172C34.3858 32.6499 34.4509 32.6827 34.4835 32.7153C34.3858 32.6499 34.6465 32.8135 34.4835 32.7153C34.6465 32.8462 34.8419 32.9771 34.9723 33.1407C35.6565 33.8277 36.6991 32.748 36.0149 32.0938C34.679 30.7524 32.8218 30.229 30.9646 30.3926C28.8468 30.6215 26.8266 31.4722 24.9043 32.3554C22.7212 33.3697 20.6035 34.482 18.4204 35.4961C18.1272 35.627 17.8665 35.7579 17.5732 35.856C17.443 35.9215 17.3126 35.9868 17.1497 36.0196C17.0846 36.0523 17.0194 36.085 16.9542 36.085C16.9216 36.085 16.889 36.1178 16.8565 36.1178C16.3025 36.3467 15.7487 36.543 15.1622 36.7393C14.0543 37.0992 12.9466 37.3936 11.8062 37.5572C11.7736 37.5572 11.5129 37.5899 11.741 37.5572C11.6759 37.5572 11.6107 37.5572 11.5455 37.5899C11.4152 37.5899 11.2522 37.6227 11.122 37.6227C10.8613 37.6554 10.568 37.6554 10.3075 37.6554C10.0142 37.6554 9.75352 37.6554 9.46027 37.6227C9.32993 37.6227 9.1996 37.5899 9.06928 37.5899C9.00411 37.5899 8.93895 37.5899 8.87378 37.5572C8.8412 37.5572 8.74345 37.5245 8.90637 37.5572C8.87378 37.5572 8.80862 37.5572 8.77604 37.5245C8.25471 37.4591 7.70082 37.3282 7.21208 37.1647C7.08175 37.1319 6.95143 37.0665 6.82109 37.0337C6.7885 37.001 6.56043 36.9356 6.75592 37.001C6.69076 36.9684 6.62559 36.9356 6.56043 36.9029C6.29977 36.7721 6.03911 36.6412 5.77846 36.5103C5.5178 36.3795 5.25714 36.2159 5.02906 36.0523C4.89873 35.9542 4.7684 35.8887 4.67065 35.7905C4.63807 35.7579 4.60549 35.7579 4.57291 35.7252C4.47516 35.6597 4.73582 35.856 4.57291 35.7252C4.50774 35.6597 4.44258 35.627 4.37741 35.5616C3.92126 35.2017 3.4977 34.7764 3.1067 34.3184C3.04154 34.2529 3.20445 34.482 3.1067 34.3184C3.07412 34.2529 3.04154 34.2203 3.00895 34.1548C2.94379 34.0567 2.87863 33.9585 2.81346 33.8277C2.68313 33.5986 2.58539 33.3697 2.48764 33.1407C2.42248 33.0424 2.5528 33.3042 2.48764 33.1079C2.45506 33.0424 2.45506 33.0098 2.42248 32.9443C2.38989 32.8135 2.32473 32.6827 2.29215 32.5517C2.22698 32.2901 2.16182 32.0283 2.09665 31.7666C2.06407 31.6358 2.03149 31.5048 2.03149 31.374C2.03149 31.3085 1.99891 31.2432 1.99891 31.145C2.03149 31.3085 1.99891 31.145 1.99891 31.0796C1.96633 30.7852 1.93374 30.4907 1.93374 30.1963C1.90116 29.5747 1.93374 28.9531 1.96633 28.3315C1.99891 28.0044 2.03149 27.6772 2.06407 27.35C2.03149 27.5135 2.06407 27.3173 2.06407 27.2519C2.06407 27.1864 2.09665 27.0883 2.09665 27.0228C2.12924 26.8593 2.16182 26.6957 2.1944 26.4994C2.32473 25.8451 2.45506 25.1581 2.61797 24.5038C2.78088 23.8495 2.97637 23.1952 3.20445 22.5408C3.30219 22.2137 3.43253 21.8865 3.56286 21.5594C3.62803 21.3958 3.69319 21.2322 3.75835 21.1014C3.75835 21.0687 3.79094 21.0359 3.79094 21.0032C3.72577 21.134 3.79094 21.0359 3.79094 21.0032C3.82352 20.9051 3.8561 20.8069 3.88868 20.7415C4.37741 19.5638 4.96389 18.4187 5.64813 17.3064C5.81104 17.0446 5.97395 16.8157 6.13686 16.5867C6.20203 16.4558 6.29977 16.3576 6.39752 16.2595C6.49527 16.1287 6.29977 16.3904 6.4301 16.1941C6.46268 16.1287 6.52785 16.096 6.56043 16.0305C6.88625 15.6379 7.24466 15.2454 7.60307 14.8855C7.70081 14.82 7.76598 14.7219 7.86373 14.6564C7.89631 14.6237 7.96147 14.591 7.99405 14.5583C8.02664 14.5256 8.02664 14.5256 8.05922 14.4929C8.18955 14.3948 7.96147 14.5583 8.02664 14.5256C8.22213 14.3948 8.38504 14.2638 8.58053 14.1657C8.67828 14.133 8.74345 14.0675 8.8412 14.0349C8.87378 14.0022 8.93895 14.0022 8.97153 13.9694C9.00411 13.9694 9.00411 13.9367 9.03669 13.9367C9.16702 13.8713 9.00411 13.9367 8.97153 13.9694C9.03669 13.8713 9.39513 13.8386 9.49284 13.8058C9.52542 13.8058 9.59056 13.8058 9.62313 13.7731C9.75352 13.7404 9.4277 13.7731 9.59056 13.7731C9.68838 13.7731 9.78609 13.7731 9.85124 13.7731C9.88381 13.7731 10.0793 13.8058 10.1119 13.7731C10.0793 13.8058 9.91638 13.7404 10.0793 13.7731C10.1445 13.7731 10.1771 13.8058 10.2422 13.8058C10.3075 13.8386 10.4052 13.8386 10.4703 13.8713C10.6333 13.9367 10.34 13.8058 10.4377 13.8713C10.4703 13.904 10.5355 13.904 10.568 13.9367C10.6658 13.9694 10.731 14.0349 10.8287 14.0675C10.8613 14.1003 10.8938 14.133 10.9591 14.133C10.8613 14.0349 11.122 14.2638 10.9591 14.133C11.0894 14.2638 11.2197 14.362 11.3501 14.4929C11.4478 14.591 11.2522 14.362 11.2849 14.4274C11.2849 14.4601 11.3175 14.4601 11.3175 14.4929C11.3501 14.5583 11.3826 14.6237 11.4152 14.6564C11.4478 14.7219 11.4803 14.7873 11.5129 14.8527C11.3826 14.6237 11.4803 14.82 11.5455 14.9182C11.6107 15.0818 11.6433 15.2126 11.6759 15.3762C11.7085 15.5725 11.741 15.7361 11.7736 15.9324C11.7736 15.965 11.7736 16.0632 11.8062 16.0632C11.7736 15.8669 11.7736 16.0632 11.8062 16.0632C11.8062 16.1613 11.8387 16.2923 11.8387 16.3904C11.8713 16.8811 11.904 17.3392 11.904 17.8299C11.904 18.9749 11.8387 20.1526 11.7736 21.2977C11.5782 24.1766 11.2522 27.0228 11.0242 29.9018C10.7636 33.0098 10.568 36.1178 10.6333 39.2257C10.6984 41.9411 10.8938 44.7545 11.7736 47.3392C12.523 49.5964 13.8589 51.5594 15.9116 52.7699C17.7688 53.8495 19.9192 54.0458 22.0045 53.5224C24.2201 52.9662 26.2076 51.7557 27.9671 50.3162C29.8894 48.7786 31.5511 46.9138 32.9847 44.9508C34.3532 43.0861 35.4935 41.0905 36.3081 38.9312C36.9272 37.3282 37.4159 35.4634 37.0575 33.7295C36.9272 33.0424 36.6014 32.3882 36.1126 31.8647C35.3632 31.4067 34.3206 32.4536 34.9723 33.1407Z" fill="black"/>
<path d="M59.3111 25.5182C59.2785 26.8595 60.3537 27.8736 62.1783 27.8736C63.9377 27.8736 64.622 26.9577 64.622 26.0089C64.622 24.7657 63.5468 24.4385 62.6019 24.2422C60.3211 23.7515 58.3011 23.5552 58.3011 21.2652C58.3011 19.3677 59.8323 18.3862 62.0805 18.3862C64.5568 18.3862 65.6647 19.7602 65.7624 21.2978H64.4591C64.2636 19.6294 62.6996 19.5313 62.048 19.5313C60.6795 19.5313 59.7346 20.1856 59.7346 21.1997C59.7346 22.4102 60.9076 22.6065 62.2435 22.8682C64.0355 23.2281 66.0556 23.5879 66.0556 25.9761C66.0556 28.9533 62.9277 28.986 62.1131 28.986C60.6795 28.986 58.1381 28.6589 58.0078 25.5182H59.3111Z" fill="black"/>
<path d="M68.8579 18.6804V24.6346C68.8579 25.8777 68.9557 27.8407 71.4645 27.8407C73.452 27.8407 74.0711 26.7283 74.0711 24.6346V18.6804H75.4069V24.8308C75.4069 28.9203 72.5397 29.0184 71.4645 29.0184C67.8152 29.0184 67.522 26.5647 67.522 24.8308V18.6804H68.8579Z" fill="black"/>
<path d="M78.1112 25.5182C78.0787 26.8595 79.154 27.8736 80.9785 27.8736C82.738 27.8736 83.4222 26.9577 83.4222 26.0089C83.4222 24.7657 82.347 24.4385 81.4021 24.2422C79.1214 23.7515 77.1012 23.5552 77.1012 21.2652C77.1012 19.3677 78.6326 18.3862 80.8808 18.3862C83.3571 18.3862 84.4648 19.7602 84.5626 21.2978H83.2267C83.0312 19.6294 81.4673 19.5313 80.8156 19.5313C79.4472 19.5313 78.5023 20.1856 78.5023 21.1997C78.5023 22.4102 79.6752 22.6065 81.0112 22.8682C82.8031 23.2281 84.8232 23.5879 84.8232 25.9761C84.8232 28.9533 81.6954 28.986 80.8808 28.986C79.4472 28.986 76.9058 28.6589 76.7754 25.5182H78.1112Z" fill="black"/>
<path d="M85.4419 19.8255V18.6804H93.2617V19.8255H90.0361V28.724H88.7002V19.8255H85.4419Z" fill="black"/>
<path fill-rule="evenodd" clip-rule="evenodd" d="M92.1543 28.724H93.588L94.5329 26.1395H98.7685L99.7134 28.724H101.147L97.3675 18.7131H95.9339L92.1543 28.724ZM96.6507 20.0545L98.3776 24.9945H94.9239L96.6507 20.0545Z" fill="black"/>
<path d="M103.558 18.6804V28.6913H102.222V18.6804H103.558Z" fill="black"/>
<path d="M107.044 28.724H105.708V18.6804H107.207L112.518 26.6302V18.6804H113.853V28.6913H112.355L107.044 20.7414V28.724Z" fill="black"/>
<path fill-rule="evenodd" clip-rule="evenodd" d="M114.897 28.724H116.331L117.274 26.1395H121.511L122.456 28.724H123.889L120.109 18.7131H118.676L114.897 28.724ZM119.426 20.0545L121.152 24.9945H117.699L119.426 20.0545Z" fill="black"/>
<path fill-rule="evenodd" clip-rule="evenodd" d="M129.33 18.6804C131.742 18.6804 132.296 20.0544 132.296 21.2321C132.296 22.3118 131.579 23.2278 130.634 23.3914V23.4241C131.449 23.555 132.719 24.1112 132.719 25.9104C132.719 27.35 132.002 28.6913 129.167 28.6913H124.932V18.6804H129.33ZM126.3 22.9333H129.005C130.471 22.9333 130.96 22.2137 130.96 21.363C130.96 20.7742 130.732 19.7927 129.038 19.7927H126.3V22.9333ZM129.07 27.5789H126.3V24.0784H129.07C130.438 24.0784 131.351 24.5364 131.351 25.8123C131.351 27.4481 129.982 27.5789 129.07 27.5789Z" fill="black"/>
<path d="M140.897 28.724H134.479V18.6804H135.815V27.579H140.897V28.724Z" fill="black"/>
<path d="M148.522 22.9661V24.1112H143.308V27.579H149.239V28.724H141.972V18.6804H149.076V19.8255H143.308V22.9661H148.522Z" fill="black"/>
<path d="M64.5893 35.856V37.0011H59.8975V41.4831H58.5615V31.4722H65.2735V32.6172H59.8975V35.8888L64.5893 35.856Z" fill="black"/>
<path d="M67.7826 31.4722V41.4831H66.4468V31.4722H67.7826Z" fill="black"/>
<path d="M71.2362 41.4831H69.9004V31.4722H71.3992L76.7101 39.4221V31.4722H78.0459V41.4831H76.5798L71.2688 33.5333V41.4831H71.2362Z" fill="black"/>
<path fill-rule="evenodd" clip-rule="evenodd" d="M79.1211 41.4831H80.5547L81.4996 38.8986H85.7352L86.6801 41.4831H88.1138L84.3342 31.4722H82.9006L79.1211 41.4831ZM83.6174 32.8135L85.3442 37.7536H81.8905L83.6174 32.8135Z" fill="black"/>
<path d="M90.5248 41.4831H89.189V31.4722H90.6878L95.9986 39.4221V31.4722H97.3345V41.4831H95.8684L90.5248 33.5333V41.4831Z" fill="black"/>
<path d="M107.924 38.1789C107.728 39.6183 106.914 41.8103 103.688 41.8103C100.723 41.8103 98.9312 39.8801 98.9312 36.6739C98.9312 31.3413 102.808 31.1777 103.623 31.1777C106.816 31.1777 107.598 33.0426 107.761 34.5802H106.425C106.36 33.8605 105.903 32.3228 103.623 32.3228C101.114 32.3228 100.332 34.4493 100.332 36.6085C100.332 38.9313 101.603 40.6652 103.721 40.6652C105.317 40.6652 106.457 39.6183 106.556 38.1789H107.924Z" fill="black"/>
<path d="M116.037 35.7579V36.9029H110.791V40.3708H116.722V41.5158H109.455V31.4722H116.591V32.6172H110.823V35.7579H116.037Z" fill="black"/>
<path fill-rule="evenodd" clip-rule="evenodd" d="M61.1678 9.02954C59.9949 9.02954 59.3107 9.52028 58.9849 9.84743C58.4635 10.3709 57.9747 11.3196 58.0074 12.6609C58.0074 14.4603 58.7893 15.3109 58.9849 15.5072C59.3758 15.8998 60.0601 16.2923 61.2331 16.2923C61.9173 16.2923 62.7643 16.1615 63.416 15.5072C63.8722 15.0818 64.4261 14.1659 64.4261 12.6609C64.4261 11.1233 63.8396 10.24 63.3834 9.81471C62.9599 9.42212 62.2757 9.02954 61.1678 9.02954ZM61.2003 15.7033C60.4182 15.7033 59.8317 15.3762 59.5059 15.049C59.0172 14.5583 58.724 13.7077 58.724 12.6935C58.724 11.4503 59.1475 10.6324 59.6037 10.2071C59.8969 9.97813 60.3857 9.65097 61.2003 9.65097C61.6889 9.65097 62.2754 9.74912 62.7641 10.2071C63.2203 10.6324 63.6439 11.3849 63.6439 12.6935C63.6439 13.8385 63.3181 14.591 62.8619 15.049C62.5361 15.3762 62.0148 15.7033 61.2003 15.7033Z" fill="black"/>
<path d="M69.4767 9.22583H70.3565L68.1083 12.5628L70.4542 16.0633H69.542L67.6522 13.0863L65.7624 16.0633H64.8501L67.196 12.5628L64.9478 9.22583H65.8276L67.6522 12.0394L69.4767 9.22583Z" fill="black"/>
<path d="M75.5042 12.301V12.9227H72.2134V16.096H71.4966V9.22583H75.9278V9.84742H72.2134V12.301H75.5042Z" fill="black"/>
<path fill-rule="evenodd" clip-rule="evenodd" d="M79.9028 9.02954C78.7298 9.02954 78.0455 9.52028 77.7197 9.84743C77.1985 10.3709 76.7097 11.3196 76.7423 12.6609C76.7423 14.4603 77.5243 15.3109 77.7197 15.5072C78.1107 15.8998 78.795 16.2923 79.9679 16.2923C80.6521 16.2923 81.4993 16.1615 82.1509 15.5072C82.607 15.0818 83.161 14.1659 83.161 12.6609C83.161 11.1233 82.5745 10.24 82.1184 9.81471C81.6948 9.42212 81.0105 9.02954 79.9028 9.02954ZM79.9351 15.7033C79.1532 15.7033 78.5667 15.3762 78.2408 15.049C77.7521 14.5583 77.4914 13.7077 77.4588 12.6935C77.4588 11.4503 77.8825 10.6324 78.3386 10.2071C78.6318 9.97813 79.1206 9.65097 79.9351 9.65097C80.4239 9.65097 81.0103 9.74912 81.4991 10.2071C81.9552 10.6324 82.3788 11.3849 82.3788 12.6935C82.3788 13.8385 82.053 14.591 81.5968 15.049C81.271 15.3762 80.7497 15.7033 79.9351 15.7033Z" fill="black"/>
<path fill-rule="evenodd" clip-rule="evenodd" d="M87.5273 9.22583H84.6274V16.1288H85.3442V13.119H87.4947C87.7554 13.119 88.1789 13.119 88.4722 13.3807C88.7508 13.6046 88.7673 13.9242 88.7866 14.2985C88.7899 14.3618 88.7933 14.4267 88.798 14.493L88.8305 15.2127C88.8631 15.7689 88.9934 15.9979 89.0587 16.096H89.8406C89.5799 15.7035 89.5799 15.3763 89.5799 15.1473L89.5473 14.3621C89.5447 14.3246 89.5422 14.287 89.5398 14.2496C89.5124 13.8297 89.4854 13.4166 89.1564 13.0863C89.0912 13.0208 88.8957 12.8245 88.5699 12.7591V12.7264C88.798 12.6609 89.0912 12.5301 89.3518 12.2357C89.6777 11.8758 89.7754 11.4505 89.7754 11.0252C89.7754 10.3709 89.5473 9.97828 89.3192 9.74928C88.8631 9.29126 88.2766 9.22583 87.5273 9.22583ZM87.4622 12.4646H85.3769V9.84741H87.4296C87.7555 9.84741 88.3093 9.84741 88.6677 10.1746C88.8632 10.3381 89.0261 10.5999 89.0261 11.0906C89.0261 11.5159 88.8632 11.8758 88.6351 12.1047C88.3744 12.3338 87.9183 12.4646 87.4622 12.4646Z" fill="black"/>
<path fill-rule="evenodd" clip-rule="evenodd" d="M96.0313 9.97804C95.3145 9.29101 94.4673 9.22558 93.7505 9.22558V9.19287H91.3721V16.0631H93.6528C94.4347 16.0631 95.3145 15.9649 95.9987 15.3434C96.5852 14.8199 96.9762 13.8712 96.9762 12.628C96.9762 11.254 96.5201 10.4361 96.0313 9.97804ZM93.4573 15.4742H92.0889V9.87985H93.7506C94.2719 9.87985 94.9236 9.97799 95.4775 10.5014C95.9662 10.9595 96.2269 11.7446 96.2269 12.6934C96.2269 13.5767 95.9662 14.3946 95.5101 14.8525C94.891 15.4742 94.0438 15.4742 93.4573 15.4742Z" fill="black"/>
<path d="M63.9705 47.2411V50.7417H63.3515V49.5312H63.3189C63.1235 49.891 62.8302 50.2836 62.5044 50.5126C61.983 50.8725 61.3965 50.9379 60.9079 50.9379C60.0932 50.9379 59.3765 50.7743 58.7574 50.12C58.4967 49.8583 57.8125 49.0077 57.8125 47.2738C57.8125 45.867 58.3013 44.951 58.7574 44.493C59.1158 44.1331 59.8326 43.675 61.0707 43.675C62.0807 43.675 62.7324 44.0023 63.0908 44.3622C63.4493 44.7219 63.7425 45.2781 63.8077 45.867H63.0908C63.0256 45.4417 62.8628 45.0818 62.6347 44.8529C62.2763 44.493 61.7224 44.2967 61.0707 44.2967C60.1258 44.2967 59.5719 44.6566 59.3113 44.951C58.6271 45.6707 58.5944 46.8485 58.5944 47.3064C58.5944 48.3207 58.8877 49.1386 59.3765 49.662C59.7023 50.0219 60.2562 50.349 61.0707 50.349C61.7875 50.349 62.3089 50.0545 62.6021 49.7601C63.1235 49.2694 63.2863 48.4843 63.2863 47.8626H61.1684V47.2411H63.9705Z" fill="black"/>
<path fill-rule="evenodd" clip-rule="evenodd" d="M68.4989 43.9043H65.5991V50.8072H66.316V47.7974H68.4664C68.727 47.7974 69.1506 47.7974 69.4438 48.0591C69.7225 48.283 69.739 48.6025 69.7583 48.9769C69.7616 49.0403 69.7649 49.1052 69.7697 49.1714L69.8022 49.8912C69.8349 50.4473 69.9652 50.6764 70.0303 50.7745H70.8124C70.5517 50.3819 70.5517 50.0547 70.5517 49.8258L70.5191 49.0406C70.5165 49.0031 70.514 48.9655 70.5116 48.9281C70.4841 48.5082 70.4572 48.0951 70.128 47.7647L70.1279 47.7645C70.0626 47.699 69.8672 47.503 69.5417 47.4375V47.4048C69.7697 47.3394 70.0629 47.2085 70.3236 46.914C70.6494 46.5543 70.7471 46.1289 70.7471 45.7037C70.7471 45.0493 70.5191 44.6568 70.291 44.4277C69.8349 43.9697 69.2484 43.9043 68.4989 43.9043ZM68.4338 47.1102H66.316L66.3486 44.4931H68.4012C68.7271 44.4931 69.281 44.4931 69.6394 44.8202C69.8349 44.9838 69.9978 45.2455 69.9978 45.7362C69.9978 46.1615 69.8349 46.5214 69.6068 46.7505C69.3461 46.9794 68.89 47.1102 68.4338 47.1102Z" fill="black"/>
<path fill-rule="evenodd" clip-rule="evenodd" d="M75.1459 43.7078C73.9729 43.7078 73.2886 44.1986 72.9628 44.5257C72.4741 45.0164 71.9854 45.9652 71.9854 47.3393C71.9854 49.1385 72.7674 49.9891 72.9628 50.1854C73.3539 50.5781 74.0381 50.9707 75.211 50.9707C75.8952 50.9707 76.7424 50.8397 77.394 50.1854C77.8502 49.7602 78.4041 48.8441 78.4041 47.3393C78.4041 45.8015 77.8176 44.9183 77.3615 44.493C76.9379 44.1004 76.2537 43.7078 75.1459 43.7078ZM75.2114 50.3492C74.4294 50.3492 73.8429 50.0221 73.5171 49.6948C73.0283 49.2041 72.7352 48.3863 72.7352 47.3394C72.7352 46.0962 73.1587 45.2783 73.6148 44.8529C73.9081 44.624 74.3969 44.2969 75.2114 44.2969C75.7001 44.2969 76.2866 44.395 76.7753 44.8529C77.2315 45.2783 77.6551 46.0308 77.6551 47.3394C77.6551 48.4844 77.3292 49.2368 76.8731 49.6948C76.5472 50.0221 76.026 50.3492 75.2114 50.3492Z" fill="black"/>
<path d="M80.5218 43.9043V48.0264C80.5218 48.6152 80.5544 49.335 80.9454 49.793C81.2712 50.1202 81.8251 50.3492 82.4116 50.3492C82.9981 50.3492 83.5519 50.1528 83.8452 49.8257C84.2362 49.4005 84.3014 48.7134 84.3014 48.059V43.9369H85.0182V48.0918C85.0182 48.7788 84.9856 49.6621 84.3014 50.2838C83.7149 50.8399 82.9981 50.9053 82.379 50.9053C81.2712 50.9053 80.7174 50.5455 80.4567 50.2838C79.9027 49.7603 79.7725 48.877 79.7725 48.059V43.8716H80.5218V43.9043Z" fill="black"/>
<path fill-rule="evenodd" clip-rule="evenodd" d="M91.1442 44.4277C90.623 43.9369 89.8735 43.9043 89.3849 43.9043L86.7456 43.8716V50.7418H87.4625V47.8955H89.287C89.8084 47.8955 90.5903 47.8955 91.1442 47.3067C91.4049 47.0449 91.6656 46.5869 91.6656 45.8344C91.6656 45.082 91.4049 44.6567 91.1442 44.4277ZM89.2543 47.2739H87.4949V44.4931H89.2869C89.6454 44.4931 90.2318 44.5258 90.5902 44.8857C90.7531 45.0493 90.9487 45.3764 90.9487 45.8671C90.9487 46.3906 90.7531 46.7177 90.5576 46.914C90.1666 47.2412 89.6454 47.2739 89.2543 47.2739Z" fill="black"/>
<path d="M229 0H169.374V59.8692H229V0Z" fill="#21283F"/>
<path fill-rule="evenodd" clip-rule="evenodd" d="M182.206 51.224C182.391 50.7486 182.48 50.2414 182.468 49.7314C182.465 49.7028 182.468 49.6736 182.476 49.6462C182.486 49.6188 182.501 49.5938 182.52 49.573C182.467 48.5509 182.02 47.5897 181.274 46.8912C180.53 46.1929 179.544 45.8117 178.524 45.8276H178.366C177.852 45.838 177.345 45.9499 176.874 46.1571C176.402 46.3643 175.977 46.6626 175.62 47.0351C175.264 47.4076 174.984 47.8468 174.796 48.3279C174.61 48.809 174.519 49.3224 174.529 49.8387C174.539 50.3552 174.651 50.8644 174.857 51.3376C175.063 51.8106 175.361 52.2383 175.732 52.5961C176.102 52.9538 176.541 53.2347 177.02 53.4227C177.499 53.6106 178.01 53.702 178.524 53.6915H178.682C179.19 53.6823 179.691 53.5725 180.157 53.3683C180.622 53.1641 181.043 52.8695 181.395 52.5016C181.747 52.1335 182.022 51.6994 182.206 51.224ZM178.524 46.2642C180.207 46.2642 181.205 47.6723 181.205 49.7843C181.205 51.5619 180.312 53.3044 178.524 53.3044C176.842 53.3044 175.842 51.8963 175.842 49.7843C175.842 48.0031 176.684 46.2642 178.524 46.2642Z" fill="white"/>
<path fill-rule="evenodd" clip-rule="evenodd" d="M206.434 51.2324C206.622 50.755 206.715 50.245 206.707 49.7314V49.6399C206.653 48.6178 206.206 47.6566 205.461 46.9581C204.715 46.2598 203.729 45.8786 202.71 45.8945H202.553C201.608 45.9838 200.727 46.4113 200.07 47.0989C199.414 47.7866 199.026 48.6885 198.976 49.6399C198.957 50.1522 199.038 50.6635 199.214 51.1444C199.391 51.6254 199.66 52.0666 200.007 52.4429C200.354 52.8193 200.771 53.1232 201.235 53.3374C201.699 53.5517 202.2 53.672 202.71 53.6915H202.868C203.38 53.686 203.885 53.579 204.355 53.3767C204.825 53.1745 205.251 52.8809 205.608 52.513C205.964 52.1449 206.245 51.7097 206.434 51.2324ZM202.763 46.2783C204.446 46.2783 205.445 47.6864 205.445 49.7984C205.445 51.576 204.604 53.3185 202.763 53.3185C201.081 53.3185 200.081 51.9105 200.081 49.7984C200.081 48.0173 200.922 46.2783 202.763 46.2783Z" fill="white"/>
<path fill-rule="evenodd" clip-rule="evenodd" d="M210.353 50.1538C210.879 50.1538 211.089 50.4179 211.51 51.0514L213.119 53.2304C213.329 53.4944 213.434 53.5472 213.645 53.5472H215.432V53.2832L214.696 53.1248C214.577 53.1132 214.464 53.0736 214.363 53.0095C214.262 52.9453 214.179 52.8581 214.118 52.7551L213.066 51.3823C212.281 50.3263 212.123 50.1679 211.913 50.0623V50.0095C213.066 49.6928 213.75 48.9535 213.75 48.0031C213.746 47.6051 213.624 47.2173 213.4 46.8889C213.176 46.5605 212.86 46.3063 212.491 46.1585C211.979 46.0107 211.446 45.9395 210.914 45.9474H207.601V46.2114L208.39 46.4225C208.6 46.4613 208.705 46.5633 208.705 46.7746V52.7411C208.71 52.8316 208.68 52.9206 208.621 52.9894C208.562 53.0583 208.48 53.1017 208.39 53.1107L207.601 53.3219V53.5859H210.966V53.3219L210.072 53.1107C209.982 53.1017 209.899 53.0583 209.84 52.9894C209.781 52.9206 209.751 52.8316 209.757 52.7411V50.1538H210.353ZM210.703 49.837H209.757V46.3134H210.353C210.744 46.314 211.133 46.3674 211.51 46.4717C211.804 46.6104 212.048 46.834 212.214 47.1139C212.38 47.3936 212.458 47.7169 212.439 48.0417C212.439 48.9394 212.106 49.837 210.703 49.837Z" fill="white"/>
<path d="M196.663 48.5838H196.978V51.1182H196.663L196.453 50.379C196.4 50.1679 196.19 49.9566 195.98 50.0094H194.191V52.8079C194.186 52.8984 194.216 52.9874 194.275 53.0562C194.334 53.1251 194.417 53.1685 194.507 53.1775L195.401 53.3887V53.6527H192.036V53.3887L192.824 53.1775C192.914 53.1685 192.997 53.1251 193.056 53.0562C193.115 52.9874 193.145 52.8984 193.139 52.8079V46.8237C193.139 46.6125 193.034 46.5104 192.824 46.4718L192.036 46.2606V45.9966H197.768V47.8798H197.452L197.101 46.7182C196.996 46.4049 196.891 46.2993 196.628 46.2993H194.209V49.5694H196.049C196.157 49.5667 196.261 49.5293 196.347 49.4628C196.432 49.3963 196.494 49.3041 196.523 49.1998L196.663 48.5838Z" fill="white"/>
<path fill-rule="evenodd" clip-rule="evenodd" d="M216.011 53.3218V53.5858L219.569 53.5294C220.42 53.5821 221.269 53.4186 222.041 53.0543C222.62 52.739 223.098 52.2626 223.415 51.6819C223.733 51.1013 223.876 50.4411 223.829 49.7806C223.853 49.0579 223.666 48.3441 223.292 47.726C222.918 47.1079 222.374 46.6122 221.726 46.2992C221.023 46.025 220.27 45.9049 219.516 45.9473H216.011V46.2113L216.799 46.4224C217.01 46.4611 217.115 46.5632 217.115 46.7744V52.741C217.12 52.8315 217.09 52.9204 217.032 52.9893C216.973 53.0582 216.889 53.1016 216.799 53.1105L216.011 53.3218ZM218.22 52.8993V46.3556H219.342C219.989 46.2753 220.647 46.3841 221.234 46.6688C222.286 47.3025 222.636 48.5697 222.636 49.8368C222.636 51.1041 222.269 52.2129 221.479 52.7409C220.88 53.1072 220.181 53.2736 219.481 53.2161H218.535C218.272 53.2161 218.22 53.1633 218.22 52.8993Z" fill="white"/>
<path d="M185.41 53.3218V53.5858H182.731V53.3218L183.432 53.1634C183.65 53.1115 183.85 53.0021 184.011 52.8466L186.321 49.9426L184.011 46.8801C183.943 46.7846 183.858 46.704 183.758 46.6435C183.658 46.5828 183.548 46.5436 183.432 46.5281L182.801 46.3697V46.1057H186.111V46.3697L185.375 46.5281C185.111 46.5774 185.165 46.683 185.322 46.8414L187.004 49.2703H187.057L188.793 46.8414C188.898 46.683 188.95 46.6302 188.74 46.5281L188.039 46.3697V46.1057H190.721V46.3697L190.019 46.5281C189.802 46.5772 189.601 46.6857 189.441 46.8414L187.233 49.587L189.652 52.8079C189.717 52.906 189.803 52.9893 189.903 53.0529C190.002 53.1165 190.114 53.1588 190.23 53.1775L190.861 53.3359V53.5999H187.566V53.3359L188.302 53.1775C188.564 53.1246 188.512 53.0719 188.407 52.8606L186.514 50.2735H186.461L184.572 52.8606C184.466 53.0191 184.414 53.0719 184.625 53.1775L185.41 53.3218Z" fill="white"/>
<path d="M177.42 42.3958C177.164 42.6381 176.824 42.7706 176.473 42.7653C176.298 42.7727 176.125 42.7437 175.962 42.68C175.798 42.6165 175.65 42.5197 175.527 42.3958C175.397 42.2242 175.303 42.0285 175.248 41.8201C175.195 41.6117 175.182 41.3947 175.211 41.1813V39.0693H175.632V41.3398C175.613 41.4792 175.621 41.6211 175.658 41.7571C175.693 41.8931 175.756 42.0205 175.842 42.1318C175.923 42.2152 176.022 42.2779 176.132 42.3147C176.242 42.3514 176.359 42.3611 176.473 42.343C176.701 42.3462 176.924 42.2717 177.104 42.1318C177.368 41.8678 177.315 41.6038 177.315 40.9702V39.0798H177.735V40.8751C177.788 41.5615 177.788 42.0895 177.42 42.4063" fill="white"/>
<path d="M179.523 42.7126H179.155V39.0693H179.576L181.312 42.0754V39.0693H181.676V42.7126H181.259L179.523 39.7557V42.7126Z" fill="white"/>
<path d="M183.622 39.0693H183.201V42.6598H183.622V39.0693Z" fill="white"/>
<path d="M184.567 39.0693H185.041L186.093 42.2902L187.144 39.0693H187.565L186.303 42.6563H185.83L184.567 39.0693Z" fill="white"/>
<path d="M190.51 39.0693V39.4389H188.985V40.6533H190.405V40.9702H188.985V42.3394H190.51V42.6563H188.564V39.0693H190.51Z" fill="white"/>
<path fill-rule="evenodd" clip-rule="evenodd" d="M193.193 41.7092L193.613 42.6596L194.104 42.6525L193.631 41.5438C193.559 41.3739 193.464 41.2141 193.351 41.0685C193.311 41.0224 193.263 40.9846 193.208 40.9574C193.155 40.9302 193.096 40.9141 193.035 40.9102C193.254 40.901 193.462 40.8063 193.613 40.6462C193.752 40.4649 193.826 40.2415 193.823 40.0125C193.845 39.8771 193.832 39.7384 193.786 39.6093C193.74 39.4801 193.662 39.3646 193.561 39.2733C193.238 39.0514 192.844 38.9574 192.456 39.0093H191.667V42.5998H192.089V41.0756H192.299C192.842 41.0756 192.93 41.1284 193.193 41.7092ZM192.9 39.4661C193.026 39.5024 193.144 39.5651 193.246 39.6501C193.35 39.7763 193.406 39.9351 193.406 40.0989C193.406 40.2627 193.35 40.4215 193.246 40.5477C192.953 40.7471 192.594 40.823 192.246 40.7589H192.089V39.4389H192.509C192.639 39.4205 192.772 39.4297 192.9 39.4661Z" fill="white"/>
<path d="M198.714 39.0693H198.293V42.6598H198.714V39.0693Z" fill="white"/>
<path d="M200.765 42.6563V39.4389H199.66V39.0693H202.237V39.4389H201.186V42.6563H200.765Z" fill="white"/>
<path d="M203.868 42.6563V41.2834L202.763 39.0693H203.237L204.13 40.7554L204.972 39.0693H205.445L204.288 41.2834V42.6563H203.868Z" fill="white"/>
<path fill-rule="evenodd" clip-rule="evenodd" d="M208.317 42.2228C208.622 42.5527 209.046 42.7476 209.493 42.765V42.7474C210.441 42.7474 211.124 41.9554 211.124 40.8465C211.124 39.7377 210.441 38.9985 209.493 38.9985C208.547 38.9985 207.864 39.7905 207.864 40.8994V41.005C207.849 41.4551 208.012 41.893 208.317 42.2228ZM208.285 40.8642C208.285 39.9665 208.74 39.3857 209.441 39.3857C210.177 39.3857 210.598 39.9665 210.598 40.8642C210.598 41.7617 210.072 42.3954 209.441 42.3954C208.81 42.3954 208.285 41.7617 208.285 40.8642Z" fill="white"/>
<path d="M214.066 40.6533V40.9702H212.698V42.6563H212.277V39.0693H214.171V39.4389H212.698V40.6533H214.066Z" fill="white"/>
<path d="M194.98 39.9667C194.991 39.709 195.101 39.4657 195.289 39.2882C195.475 39.1108 195.723 39.0133 195.98 39.0163H196.032C196.401 39.0028 196.76 39.1356 197.031 39.3859L196.821 39.6499C196.594 39.4769 196.317 39.384 196.032 39.3859C195.559 39.3859 195.33 39.6499 195.33 39.9139C195.329 39.9833 195.342 40.0523 195.369 40.1161C195.397 40.18 195.438 40.2371 195.489 40.2835C195.635 40.3914 195.793 40.4801 195.962 40.5475C196.253 40.654 196.521 40.8152 196.751 41.0227C196.912 41.195 197.005 41.4201 197.014 41.6563C197.014 41.9364 196.903 42.205 196.706 42.4031C196.508 42.6011 196.241 42.7123 195.962 42.7123H195.857C195.461 42.6946 195.08 42.5666 194.753 42.3428L194.963 42.026C195.239 42.1858 195.542 42.2933 195.857 42.3428C196.383 42.3428 196.593 42.026 196.593 41.7091C196.597 41.553 196.541 41.4014 196.435 41.2867C196.236 41.1502 196.025 41.0323 195.804 40.9347C195.564 40.8445 195.349 40.7 195.173 40.5124C195.089 40.4559 195.024 40.3752 194.987 40.281C194.949 40.1867 194.94 40.0834 194.963 39.9844" fill="white"/>
<path d="M211.439 14.7314C211.461 14.5365 211.428 14.3395 211.345 14.1622C211.261 13.985 211.13 13.8347 210.966 13.7281C210.699 13.62 210.413 13.5662 210.124 13.5697H207.601V18.6351H210.335C210.966 18.6351 211.334 18.7935 211.386 19.3215H211.439V14.7314Z" fill="white"/>
<path d="M211.808 14.7314C211.788 14.5377 211.821 14.342 211.904 14.1662C211.988 13.9904 212.119 13.8412 212.282 13.7352C212.547 13.6274 212.832 13.5735 213.119 13.5768H215.644V18.6421H212.913C212.285 18.6421 211.916 18.8006 211.861 19.3286H211.808V14.7314Z" fill="white"/>
<path d="M216.169 13.9393V19.3215H212.334L212.282 19.4272C212.229 19.5855 212.071 19.744 211.651 19.744C211.525 19.7622 211.398 19.7416 211.285 19.6851C211.173 19.6284 211.079 19.5384 211.019 19.4272L210.967 19.3215H207.076V13.9393H206.707V14.0872L206.392 13.9816C206.379 13.9378 206.359 13.897 206.331 13.8615C206.302 13.8261 206.268 13.7968 206.227 13.7755C206.187 13.7541 206.143 13.7411 206.098 13.7372C206.053 13.7335 206.008 13.7389 205.966 13.7533C205.923 13.7677 205.883 13.7906 205.849 13.8208C205.816 13.851 205.788 13.8878 205.768 13.9289C205.75 13.9699 205.739 14.0146 205.737 14.0599C205.736 14.1054 205.744 14.1506 205.761 14.1928C205.779 14.2604 205.821 14.3192 205.879 14.358C205.937 14.3969 206.007 14.4132 206.076 14.404C206.128 14.404 206.233 14.3512 206.287 14.3512L206.707 14.5096V14.932L206.392 14.8792C206.378 14.8128 206.346 14.752 206.298 14.7037C206.251 14.6554 206.191 14.6219 206.125 14.6071C206.059 14.5924 205.99 14.5971 205.927 14.6205C205.864 14.644 205.808 14.6853 205.768 14.7396C205.728 14.7937 205.703 14.8585 205.699 14.9261C205.693 14.9936 205.708 15.0611 205.742 15.1204C205.774 15.1798 205.823 15.2284 205.882 15.2606C205.942 15.2927 206.008 15.307 206.076 15.3016C206.117 15.3009 206.156 15.2909 206.193 15.2727C206.229 15.2544 206.261 15.2282 206.287 15.196L206.637 15.2488V15.6713H206.287C206.255 15.6195 206.21 15.5784 206.155 15.5528C206.101 15.5272 206.039 15.5184 205.981 15.5274C205.921 15.5365 205.865 15.5629 205.821 15.6037C205.776 15.6443 205.745 15.6973 205.73 15.7559C205.715 15.8145 205.718 15.8762 205.738 15.9331C205.759 15.99 205.795 16.0396 205.843 16.0757C205.892 16.1118 205.949 16.1328 206.009 16.1361C206.069 16.1392 206.129 16.1245 206.181 16.0936C206.233 16.0936 206.233 16.0408 206.287 15.988H206.637V16.4633H206.287C206.239 16.4008 206.17 16.3564 206.094 16.3373C206.018 16.3181 205.938 16.3253 205.866 16.3576C205.832 16.3797 205.803 16.4089 205.781 16.4432C205.76 16.4776 205.747 16.5163 205.742 16.5566C205.736 16.5968 205.741 16.6377 205.752 16.6763C205.765 16.7148 205.786 16.7503 205.813 16.7801C205.862 16.8424 205.929 16.8868 206.005 16.906C206.081 16.9252 206.162 16.918 206.233 16.8856L206.339 16.7801H206.654V17.2024L206.304 17.2553C206.278 17.2063 206.242 17.1642 206.197 17.1322C206.152 17.1 206.101 17.079 206.046 17.0707C205.992 17.0624 205.937 17.067 205.884 17.0843C205.832 17.1014 205.784 17.1308 205.746 17.1698C205.706 17.2089 205.677 17.2564 205.66 17.3089C205.643 17.3614 205.639 17.4172 205.647 17.4717C205.655 17.5263 205.676 17.5782 205.708 17.6231C205.739 17.6681 205.782 17.7048 205.831 17.7304C205.888 17.7861 205.962 17.8228 206.041 17.8361C206.109 17.8382 206.176 17.8192 206.232 17.7812C206.289 17.7434 206.332 17.6887 206.357 17.6248L206.672 17.5721V17.9944L206.252 18.1001C206.181 18.0474 206.092 18.0236 206.004 18.0334C205.916 18.0432 205.836 18.0858 205.778 18.1528C205.727 18.2239 205.704 18.3117 205.714 18.3989C205.723 18.4862 205.765 18.5667 205.831 18.6246C205.901 18.6772 205.99 18.7009 206.078 18.6912C206.166 18.6814 206.246 18.6388 206.304 18.5717C206.357 18.5189 206.357 18.5189 206.357 18.4662L206.672 18.3606V18.7829L206.321 19.0997C206.288 19.0742 206.251 19.0567 206.209 19.0481C206.168 19.0396 206.126 19.0405 206.086 19.0507C206.045 19.0607 206.007 19.08 205.975 19.1068C205.944 19.1336 205.918 19.1672 205.901 19.2054C205.849 19.3637 205.849 19.5749 206.006 19.6277C206.071 19.6722 206.149 19.6914 206.226 19.6816C206.304 19.672 206.375 19.6339 206.426 19.5749C206.479 19.5222 206.479 19.5222 206.479 19.4694L206.795 19.3109V19.6806H210.791C210.966 19.9112 211.224 20.0629 211.51 20.1026C211.796 20.1421 212.086 20.0664 212.316 19.8917C212.422 19.839 212.474 19.7334 212.527 19.6806H216.52V13.9393H216.169Z" fill="white"/>
<path d="M208.969 12.1443C208.179 12.1443 207.496 12.2499 207.496 12.4083C207.496 12.5666 208.127 12.6723 208.969 12.6723C209.81 12.6723 210.441 12.5666 210.441 12.4083C210.441 12.2499 209.81 12.1443 208.969 12.1443Z" fill="white"/>
<path d="M211.019 10.4017L210.177 10.9825V11.0354L210.388 11.1409V11.1937L209.862 11.6689H209.809L209.459 11.1409C209.407 11.0882 209.459 11.0882 209.512 11.0354L209.774 10.9825V10.9192L209.143 9.96875H209.038L208.407 10.9192V10.9719L208.67 11.0247C208.723 11.0247 208.723 11.0776 208.723 11.1304L208.372 11.6584H208.319L207.847 11.1832V11.1304L208.057 11.0247V10.9719L207.163 10.3911L207.109 10.4439L207.635 12.0279C208.672 11.7639 209.756 11.7639 210.791 12.0279L211.317 10.4439L211.019 10.4017Z" fill="white"/>
<path d="M211.598 22.8064C210.756 22.8064 210.125 22.912 210.125 23.0704C210.125 23.2288 210.756 23.3344 211.598 23.3344C212.439 23.3344 213.067 23.2288 213.067 23.0704C213.067 22.912 212.439 22.8064 211.598 22.8064Z" fill="white"/>
<path d="M213.645 21.0112L212.807 21.5921V21.6448L213.014 21.7504C213.067 21.7504 213.067 21.8032 213.014 21.8032L212.491 22.2784H212.439L212.088 21.7504C212.036 21.6976 212.088 21.6976 212.088 21.6976L212.351 21.6448V21.5921L211.72 20.6416H211.615L210.984 21.5921V21.6448L211.246 21.6976C211.26 21.6976 211.274 21.7032 211.284 21.7131C211.293 21.723 211.3 21.7364 211.3 21.7504L210.931 22.2784H210.879L210.405 21.8032V21.7504L210.616 21.6448V21.5921L209.774 21.0112L209.722 21.0641L210.248 22.6481C211.283 22.3834 212.368 22.3834 213.403 22.6481L213.929 21.0641L213.645 21.0112Z" fill="white"/>
<path d="M214.223 12.1443C213.434 12.1443 212.754 12.2499 212.754 12.4083C212.754 12.5666 213.382 12.6723 214.223 12.6723C215.065 12.6723 215.696 12.5666 215.696 12.4083C215.696 12.2499 215.065 12.1443 214.223 12.1443Z" fill="white"/>
<path d="M216.275 10.4017L215.432 10.9825V11.0354L215.644 11.1409C215.696 11.1409 215.696 11.1937 215.644 11.1937L215.117 11.6689H215.065L214.715 11.1409C214.715 11.0882 214.714 11.0882 214.767 11.0354L215.03 10.9825V10.9192L214.399 9.96875H214.189L213.557 10.9192V10.9719L213.82 11.0247C213.872 11.0247 213.872 11.0776 213.82 11.1304L213.47 11.6584L212.996 11.1832V11.1304L213.207 11.0247V10.9719L212.316 10.3911L212.263 10.4439L212.786 12.0279C213.821 11.7639 214.905 11.7639 215.941 12.0279L216.467 10.4439L216.275 10.4017Z" fill="white"/>
<path fill-rule="evenodd" clip-rule="evenodd" d="M208.454 14.3788C208.399 14.3605 208.341 14.3547 208.284 14.3619V14.3794H207.968C208.023 14.407 208.049 14.4201 208.062 14.4414C208.073 14.4609 208.073 14.4873 208.073 14.5379V14.8899C208.073 14.9798 208.073 15.0187 208.054 15.0355C208.039 15.0482 208.014 15.0482 207.968 15.0482V15.1011H208.232C208.291 15.1069 208.351 15.1004 208.406 15.082C208.463 15.0634 208.516 15.0334 208.56 14.9938C208.605 14.9542 208.64 14.9056 208.665 14.8514C208.69 14.7972 208.703 14.7384 208.704 14.6787C208.691 14.5993 208.655 14.5257 208.599 14.4675C208.558 14.4273 208.508 14.397 208.454 14.3788ZM208.284 15.0481C208.232 15.0481 208.178 15.0481 208.178 14.9425L208.232 14.4673V14.4145H208.284C208.389 14.4145 208.494 14.5201 208.494 14.7313C208.5 14.8001 208.482 14.8686 208.443 14.926C208.405 14.9833 208.349 15.0263 208.284 15.0481Z" fill="white"/>
<path fill-rule="evenodd" clip-rule="evenodd" d="M209.458 14.9687C209.515 14.9035 209.548 14.819 209.548 14.7313H209.529C209.516 14.641 209.475 14.557 209.413 14.4909C209.349 14.4247 209.268 14.3796 209.179 14.3618C209.13 14.3592 209.08 14.3671 209.035 14.3847C208.989 14.4024 208.948 14.4295 208.913 14.4644C208.878 14.4993 208.851 14.5411 208.834 14.587C208.816 14.633 208.808 14.6822 208.81 14.7313C208.81 14.7791 208.82 14.8264 208.839 14.8703C208.858 14.9141 208.885 14.9538 208.92 14.9867C208.954 15.0197 208.995 15.0452 209.04 15.0618C209.043 15.0629 209.046 15.0641 209.049 15.0651C209.067 15.0771 209.087 15.0835 209.109 15.0835C209.116 15.0835 209.122 15.083 209.128 15.0822C209.145 15.0839 209.162 15.0843 209.179 15.0834H209.231C209.318 15.0746 209.399 15.0337 209.458 14.9687ZM209.128 15.0822C209.221 15.07 209.267 14.9647 209.267 14.7666C209.267 14.5555 209.162 14.4146 209.109 14.4146C209.056 14.4146 208.951 14.5202 208.951 14.7314C208.951 14.8979 208.983 15.0206 209.049 15.0651C209.074 15.0739 209.101 15.0797 209.128 15.0822Z" fill="white"/>
<path d="M210.493 14.3619C210.388 14.4147 210.388 14.4147 210.388 14.5204V14.8724C210.388 14.978 210.388 14.978 210.493 15.0307V15.0835H210.125V15.0307C210.231 15.0307 210.231 15.0307 210.231 14.8724V14.5204L210.02 15.0484H209.967L209.757 14.5204V14.9427C209.757 14.9956 209.81 14.9956 209.862 14.9956V15.0484H209.6V14.9956C209.652 14.9956 209.652 14.9956 209.705 14.9427V14.5204C209.705 14.3619 209.705 14.3619 209.6 14.3619H209.862L210.072 14.7844L210.231 14.3619H210.493Z" fill="white"/>
<path d="M210.862 14.9428C210.862 15.0483 210.862 15.0483 210.967 15.1012V15.1434H210.598V15.0907C210.651 15.0907 210.703 15.0907 210.703 14.9322V14.5627C210.703 14.457 210.703 14.457 210.598 14.4042V14.3514H210.967V14.4042C210.914 14.4042 210.862 14.4042 210.862 14.5627V14.9428Z" fill="white"/>
<path d="M209.073 16.4739H208.968L208.547 15.9459V16.3684C208.547 16.4211 208.6 16.4211 208.652 16.4211V16.4739H208.39V16.4211C208.442 16.4211 208.442 16.4211 208.495 16.3684V15.8473C208.495 15.7945 208.442 15.7945 208.39 15.7945V15.7418H208.652L209.003 16.217V15.8649C209.003 15.8122 208.95 15.8122 208.898 15.8122V15.7594H209.161V15.8122C209.109 15.8122 209.055 15.8122 209.055 15.8649V16.4986L209.073 16.4739Z" fill="white"/>
<path d="M209.547 16.474C209.493 16.2745 209.423 16.0801 209.336 15.8931C209.283 15.7875 209.283 15.7875 209.231 15.7875V15.7347H209.581V15.7875H209.529C209.476 15.7875 209.476 15.7875 209.476 15.8403L209.634 16.1923C209.685 16.0804 209.72 15.9619 209.739 15.8403C209.739 15.7875 209.739 15.7347 209.686 15.7347H209.634V15.682H209.897V15.7347C209.845 15.7347 209.792 15.7347 209.792 15.8403C209.704 16.0273 209.635 16.2216 209.581 16.4211L209.547 16.474Z" fill="white"/>
<path d="M210.02 16.1995C210.02 16.2523 210.125 16.4106 210.231 16.4106C210.258 16.409 210.283 16.3974 210.303 16.3779C210.322 16.3585 210.334 16.3325 210.336 16.3051C210.334 16.2776 210.322 16.2517 210.303 16.2322C210.283 16.2127 210.258 16.2012 210.231 16.1995C210.125 16.1466 210.02 16.0938 210.02 15.9883C210.028 15.9256 210.059 15.8686 210.109 15.8292C210.158 15.7897 210.22 15.7711 210.283 15.777H210.493C210.49 15.8057 210.492 15.8349 210.502 15.8623C210.51 15.8896 210.525 15.9147 210.546 15.9355H210.493C210.441 15.8826 210.441 15.777 210.336 15.777C210.308 15.7787 210.282 15.7904 210.263 15.8098C210.244 15.8293 210.232 15.8552 210.231 15.8826C210.232 15.9101 210.244 15.936 210.263 15.9555C210.282 15.9749 210.308 15.9866 210.336 15.9883C210.441 16.0411 210.546 16.0938 210.546 16.2523C210.548 16.2874 210.543 16.3227 210.53 16.3557C210.518 16.3886 210.499 16.4186 210.473 16.4435C210.448 16.4684 210.418 16.4878 210.386 16.5003C210.353 16.5129 210.318 16.5183 210.283 16.5163H210.177L210.125 16.4635C210.086 16.4321 210.057 16.3914 210.038 16.3452C210.02 16.299 210.013 16.2489 210.02 16.1995Z" fill="white"/>
<path d="M208.6 17.6355C208.6 17.741 208.6 17.741 208.705 17.7939V17.8467H208.355V17.7939C208.407 17.7939 208.46 17.7939 208.46 17.6355V17.2554C208.46 17.1497 208.46 17.1497 208.355 17.0969V17.0441H208.705V17.0969C208.653 17.0969 208.6 17.0969 208.6 17.2554V17.6355Z" fill="white"/>
<path d="M209.073 17.6356V17.7412H209.126C209.178 17.7412 209.231 17.7412 209.231 17.6884C209.231 17.6356 209.283 17.6356 209.283 17.5827H209.336C209.338 17.6567 209.32 17.7299 209.283 17.794H208.757V17.7412C208.862 17.7412 208.862 17.7412 208.862 17.5827V17.2132C208.862 17.1076 208.862 17.1076 208.757 17.1076V17.0547H209.126V17.1076C209.021 17.1076 209.021 17.1076 209.021 17.2132L209.073 17.6356Z" fill="white"/>
<path d="M209.652 17.6356V17.7412H209.757C209.81 17.7412 209.81 17.7412 209.862 17.6884C209.915 17.6356 209.915 17.6356 209.915 17.5827H209.967C209.969 17.6567 209.951 17.7299 209.915 17.794H209.407V17.7412C209.512 17.7412 209.512 17.7412 209.512 17.5827V17.2132C209.512 17.1076 209.512 17.1076 209.407 17.1076V17.0547H209.757V17.1076C209.652 17.1076 209.652 17.1076 209.652 17.2132V17.6356Z" fill="white"/>
<path d="M210.177 17.794C210.124 17.5945 210.054 17.4002 209.967 17.2132C209.914 17.1077 209.914 17.1077 209.862 17.1077V17.0548H210.23V17.1077H210.177C210.124 17.1077 210.124 17.1077 210.124 17.1605C210.165 17.2828 210.219 17.4007 210.283 17.5124C210.333 17.4005 210.369 17.2821 210.388 17.1605C210.388 17.1077 210.388 17.0548 210.335 17.0548H210.283V17.002H210.545V17.0548C210.493 17.0548 210.44 17.0548 210.44 17.1605C210.354 17.3474 210.283 17.5418 210.23 17.7412L210.177 17.794Z" fill="white"/>
<path d="M213.172 14.3619C213.067 14.4147 213.067 14.4147 213.067 14.5204V14.8724C213.067 14.978 213.067 14.978 213.172 15.0307V15.0835H212.821V15.0307C212.922 15.0307 212.922 15.0307 212.922 14.8724V14.5204L212.715 15.0484H212.663L212.453 14.5204V14.9427C212.453 14.9956 212.453 14.9956 212.558 14.9956V15.0484H212.295V14.9956C212.348 14.9956 212.4 14.9956 212.4 14.9427V14.5204C212.4 14.3619 212.4 14.3619 212.295 14.3619H212.561L212.772 14.7844L212.926 14.3619H213.172Z" fill="white"/>
<path d="M213.539 14.9428C213.539 15.0483 213.539 15.0483 213.645 15.1012V15.1434H213.263V15.0907C213.315 15.0907 213.368 15.0907 213.368 14.9322V14.5627C213.368 14.457 213.368 14.457 213.263 14.4042V14.3514H213.63V14.4042C213.578 14.4042 213.525 14.4042 213.525 14.5627L213.539 14.9428Z" fill="white"/>
<path d="M214.382 15.1012H214.276L213.856 14.5731V14.9955C213.856 15.0483 213.908 15.0483 213.961 15.0483V15.1012H213.698V15.0483C213.751 15.0483 213.751 15.0483 213.803 14.9955V14.4675C213.774 14.4387 213.738 14.4202 213.698 14.4147V14.3619H213.908L214.259 14.8371V14.5203C214.259 14.4675 214.206 14.4675 214.154 14.4675V14.4147H214.416V14.4675C214.364 14.4675 214.311 14.4675 214.311 14.5203L214.364 15.1012H214.382Z" fill="white"/>
<path fill-rule="evenodd" clip-rule="evenodd" d="M214.906 14.9952C214.906 15.048 214.906 15.048 214.853 15.048V15.1009H215.222V15.048C215.169 15.048 215.169 15.048 215.117 14.9424C215.091 14.8896 215.064 14.8236 215.038 14.7576C215.012 14.6916 214.986 14.6256 214.959 14.5728L214.853 14.3616H214.801L214.591 14.9424C214.538 15.048 214.538 15.048 214.486 15.048V15.1009H214.748V15.048H214.696C214.643 15.048 214.643 15.048 214.643 14.9952L214.696 14.8896H214.853L214.906 14.9952ZM214.854 14.8368H214.697L214.802 14.6256L214.854 14.8368Z" fill="white"/>
<path d="M213.171 16.2627C213.171 16.3683 213.171 16.3683 213.276 16.4211V16.4739H212.926V16.4211C213.031 16.4211 213.031 16.4211 213.031 16.2627V15.7874C212.979 15.7874 212.926 15.7875 212.926 15.8403C212.926 15.8931 212.877 15.8931 212.877 15.9459H212.824V15.7347H212.877L212.926 15.7874H213.346C213.399 15.7874 213.399 15.7874 213.399 15.7347V15.9459C213.399 15.8931 213.399 15.8403 213.346 15.8403H213.189L213.171 16.2627Z" fill="white"/>
<path d="M213.75 16.2627C213.75 16.3683 213.75 16.3683 213.855 16.4211V16.474H213.487V16.4211C213.539 16.4211 213.592 16.4211 213.592 16.2627V15.8931C213.592 15.7875 213.592 15.7875 213.487 15.7347V15.682H213.855V15.7347C213.75 15.7347 213.75 15.7347 213.75 15.8931V16.2627Z" fill="white"/>
<path fill-rule="evenodd" clip-rule="evenodd" d="M214.674 16.1958C214.691 16.1498 214.698 16.1007 214.696 16.0515C214.698 16.0023 214.691 15.9531 214.674 15.9071C214.656 15.8611 214.629 15.8193 214.595 15.7845C214.559 15.7497 214.518 15.7226 214.472 15.7049C214.426 15.6872 214.377 15.6794 214.329 15.6818C214.281 15.6818 214.233 15.6915 214.19 15.7102C214.147 15.729 214.107 15.7565 214.074 15.7911C214.042 15.8256 214.016 15.8666 213.999 15.9113C213.983 15.9561 213.975 16.0038 213.977 16.0515V16.1043C213.986 16.1914 214.028 16.2721 214.092 16.3307C214.157 16.3893 214.241 16.4216 214.329 16.4211C214.329 16.4211 214.329 16.4211 214.329 16.4211C214.329 16.4211 214.329 16.4211 214.329 16.4211C214.222 16.4211 214.17 16.2627 214.17 16.0515C214.17 15.8403 214.275 15.7347 214.329 15.7347C214.381 15.7347 214.486 15.893 214.486 16.1043C214.486 16.3152 214.434 16.4208 214.329 16.4211C214.377 16.4236 214.426 16.4158 214.472 16.3981C214.518 16.3804 214.559 16.3533 214.595 16.3185C214.629 16.2836 214.656 16.2419 214.674 16.1958Z" fill="white"/>
<path d="M213.486 17.0548C213.381 17.1077 213.381 17.1077 213.381 17.2132V17.5828C213.381 17.6885 213.381 17.6885 213.486 17.7412V17.794H213.136V17.7412C213.241 17.7412 213.241 17.7412 213.241 17.5828V17.1605L213.031 17.6885H212.979L212.772 17.1605V17.5828C212.772 17.6357 212.824 17.6357 212.877 17.6357V17.6885H212.614C212.667 17.6885 212.667 17.6885 212.719 17.6357V17.2132C212.719 17.0548 212.719 17.0548 212.614 17.0548V17.002H212.877L213.084 17.4245L213.241 17.002L213.486 17.0548Z" fill="white"/>
<path d="M213.698 17.2556C213.698 17.1499 213.698 17.1499 213.592 17.0971V17.0443H214.118V17.2028H214.065C214.065 17.1499 214.065 17.1499 214.013 17.0971H213.908C213.855 17.0971 213.855 17.0971 213.855 17.1499V17.3611H213.908C214.013 17.3611 214.013 17.3611 214.013 17.2556H214.065V17.5196H214.013C214.013 17.4139 214.013 17.4139 213.908 17.4139H213.855V17.6779H213.908C213.96 17.6779 214.013 17.6779 214.013 17.6251C214.013 17.5723 214.065 17.5723 214.065 17.5196H214.118C214.126 17.5939 214.107 17.6688 214.065 17.7308H213.487V17.6779C213.592 17.6779 213.592 17.6779 213.592 17.5196L213.698 17.2556Z" fill="white"/>
<path fill-rule="evenodd" clip-rule="evenodd" d="M214.644 17.6883C214.696 17.7412 214.644 17.7412 214.591 17.7412L214.504 17.794H214.854V17.7412C214.836 17.7412 214.824 17.7412 214.814 17.7368C214.795 17.7285 214.783 17.7046 214.749 17.6355L214.591 17.2659L214.539 17.0547H214.486L214.275 17.6355C214.223 17.7412 214.223 17.7412 214.17 17.7412V17.794H214.486V17.7412H214.434C214.408 17.7412 214.395 17.7412 214.388 17.7346C214.381 17.728 214.381 17.7148 214.381 17.6883L214.434 17.5827H214.591L214.644 17.6883ZM214.591 17.53H214.434L214.539 17.3187L214.591 17.53Z" fill="white"/>
<path d="M210.598 26.8194C210.598 26.8821 210.58 26.9434 210.545 26.9954C210.51 27.0475 210.461 27.0881 210.403 27.1121C210.346 27.1361 210.282 27.1423 210.221 27.1301C210.16 27.1179 210.104 27.0877 210.059 27.0434C210.015 26.9991 209.985 26.9426 209.973 26.8812C209.96 26.8197 209.967 26.7561 209.991 26.6982C210.015 26.6403 210.056 26.5908 210.107 26.5561C210.159 26.5212 210.22 26.5026 210.283 26.5026C210.363 26.5104 210.439 26.5463 210.497 26.6041C210.555 26.6619 210.59 26.7381 210.598 26.8194Z" fill="white"/>
<path d="M213.539 27.2943C213.541 27.3365 213.535 27.3786 213.52 27.418C213.505 27.4573 213.481 27.4931 213.451 27.5229C213.422 27.5526 213.386 27.5759 213.347 27.5911C213.308 27.6063 213.266 27.6132 213.224 27.6111C213.181 27.617 213.137 27.6127 213.097 27.5989C213.056 27.5851 213.018 27.5619 212.988 27.5312C212.957 27.5006 212.935 27.4633 212.921 27.4221C212.907 27.3811 212.903 27.3373 212.908 27.2943C212.907 27.2522 212.913 27.2101 212.928 27.1708C212.943 27.1315 212.967 27.0957 212.996 27.0659C213.026 27.036 213.061 27.0127 213.101 26.9975C213.141 26.9823 213.182 26.9756 213.224 26.9776C213.434 27.0291 213.539 27.1348 213.539 27.2943Z" fill="white"/>
<path d="M211.913 6.12483C211.913 6.18749 211.895 6.24874 211.86 6.30083C211.825 6.35294 211.776 6.39353 211.718 6.41751C211.661 6.44149 211.597 6.44777 211.536 6.43554C211.475 6.42332 211.419 6.39315 211.374 6.34884C211.33 6.30454 211.3 6.24809 211.288 6.18663C211.275 6.12517 211.282 6.06148 211.306 6.00359C211.33 5.9457 211.371 5.89622 211.422 5.86141C211.474 5.8266 211.535 5.80802 211.598 5.80802C211.678 5.81582 211.754 5.8517 211.812 5.90952C211.87 5.96732 211.905 6.04344 211.913 6.12483Z" fill="white"/>
<path d="M218.85 8.87059C218.857 8.91002 218.855 8.95027 218.845 8.98888C218.834 9.02747 218.817 9.0636 218.793 9.09502C218.768 9.12645 218.738 9.15251 218.703 9.1716C218.667 9.19068 218.63 9.20239 218.59 9.206C218.55 9.20961 218.51 9.20506 218.472 9.1926C218.435 9.18014 218.4 9.16005 218.37 9.13357C218.34 9.1071 218.317 9.07478 218.3 9.03863C218.283 9.0025 218.274 8.96327 218.273 8.92339V8.87059C218.293 8.79003 218.342 8.71933 218.408 8.67101C218.475 8.62268 218.558 8.59986 218.64 8.60659C218.703 8.61453 218.759 8.64653 218.799 8.69581C218.839 8.7451 218.857 8.80777 218.85 8.87059Z" fill="white"/>
<path d="M204.183 21.4336C204.283 21.5917 204.338 21.7743 204.341 21.9616C204.341 22.1728 204.288 22.3313 203.92 22.5953L202.868 23.3344L202.658 23.0704L203.763 22.2784C203.973 22.1728 204.025 22.0673 204.025 21.9264C204.014 21.8142 203.978 21.706 203.92 21.6097C203.876 21.5509 203.822 21.502 203.758 21.4657C203.694 21.4293 203.624 21.4064 203.552 21.3984C203.447 21.3984 203.342 21.4512 203.132 21.6097L202.132 22.296L201.922 22.032L202.868 21.3984C203.068 21.2407 203.303 21.1322 203.552 21.0815C203.794 21.1396 204.013 21.2682 204.183 21.4512" fill="white"/>
<path d="M202.92 18.952L201.764 20.3776L203.236 19.7968L203.341 20.1136L201.343 20.8528L201.238 20.5361L202.395 19.1633L200.922 19.6913L200.817 19.3745L202.815 18.688L202.92 18.952Z" fill="white"/>
<path d="M202.78 17.1136L200.7 17.4303L200.747 17.7434L202.827 17.4269L202.78 17.1136Z" fill="white"/>
<path d="M202.553 15.7311V16.1007L200.397 16.7342V16.3647L202.132 15.8895L200.45 15.2066V14.8862L202.553 15.7311Z" fill="white"/>
<path fill-rule="evenodd" clip-rule="evenodd" d="M201.764 10.9826C201.974 10.613 202.079 10.4546 202.395 10.4546H202.412C202.465 10.4546 202.517 10.4678 202.57 10.481C202.622 10.4942 202.675 10.5074 202.727 10.5074C202.842 10.5872 202.933 10.6967 202.991 10.8242V11.0882L203.096 11.0354H203.394L204.077 11.0882L203.92 11.405L203.341 11.3522C202.973 11.3522 202.973 11.3522 202.815 11.6162L202.763 11.7218L203.551 12.1443L203.394 12.461L201.5 11.4578L201.764 10.9826ZM202.36 10.8241C202.202 10.8241 202.096 10.9298 201.991 11.1409L201.886 11.2994L202.465 11.6161L202.517 11.5634C202.569 11.5169 202.61 11.4598 202.637 11.3961C202.664 11.3322 202.677 11.2632 202.675 11.1938V11.0881C202.675 11.0075 202.614 10.9577 202.561 10.9151C202.545 10.9019 202.53 10.8894 202.517 10.8769C202.497 10.8569 202.472 10.8417 202.445 10.8326C202.418 10.8235 202.389 10.8206 202.36 10.8241Z" fill="white"/>
<path d="M204.919 7.25049L204.667 7.4423L205.941 9.12326L206.192 8.93145L204.919 7.25049Z" fill="white"/>
<path d="M207.39 6.17782L206.864 6.44183L207.706 8.07865L207.39 8.23706L206.549 6.60023L205.971 6.86423L205.866 6.60023L207.233 5.91382L207.39 6.17782Z" fill="white"/>
<path d="M209.336 6.54745L209.595 7.39227L209.284 7.49787L209.021 6.65306L208.021 5.59704L208.39 5.49144L209.126 6.28345L209.284 5.22743L209.648 5.12183L209.336 6.54745Z" fill="white"/>
<path d="M217.852 6.91699L217.694 7.18099L217.011 6.75858L216.695 7.23379L217.378 7.6562L217.221 7.9202L216.537 7.49779L216.064 8.34261L215.749 8.1842L216.852 6.33618L217.852 6.91699Z" fill="white"/>
<path d="M222.111 12.3554L221.533 12.989L222.427 13.1967L222.532 13.5698L221.322 13.253L220.534 14.2528L220.376 13.8867L221.007 13.1439L220.06 12.9327L219.955 12.6159L221.217 12.9327L222.006 11.9858L222.111 12.3554Z" fill="white"/>
<path d="M222.847 15.995L222.531 16.0478L222.479 15.2066L221.9 15.2558L221.953 16.0478H221.69L221.585 15.2558L220.638 15.3614V14.9953L222.741 14.8369L222.847 15.995Z" fill="white"/>
<path fill-rule="evenodd" clip-rule="evenodd" d="M220.902 17.1146C221.079 16.9676 221.304 16.8922 221.533 16.9034C221.824 16.8778 222.116 16.9687 222.342 17.1564C222.568 17.3441 222.712 17.6136 222.742 17.9067C222.756 18.0572 222.731 18.2087 222.669 18.3468C222.608 18.4848 222.512 18.6048 222.391 18.6952C222.214 18.8423 221.989 18.9176 221.76 18.9063H221.708C221.424 18.9222 221.144 18.827 220.929 18.6405C220.713 18.4541 220.577 18.1912 220.551 17.9067C220.537 17.7555 220.562 17.6034 220.623 17.4647C220.684 17.3261 220.781 17.2056 220.902 17.1146ZM220.849 17.9067C220.849 18.329 221.322 18.5367 221.743 18.5367C221.913 18.5327 222.077 18.4775 222.216 18.3783C222.34 18.2932 222.424 18.1634 222.454 18.0162C222.483 17.869 222.454 17.7161 222.374 17.5899C222.271 17.4857 222.148 17.4039 222.012 17.3494C221.877 17.2949 221.731 17.2689 221.585 17.273C221.415 17.277 221.25 17.3322 221.112 17.4314C221.031 17.4814 220.965 17.5514 220.919 17.6345C220.873 17.7178 220.848 17.8114 220.849 17.9067Z" fill="white"/>
<path fill-rule="evenodd" clip-rule="evenodd" d="M219.692 10.0322C219.881 9.90767 220.098 9.83486 220.323 9.82104H220.34C220.595 9.82644 220.839 9.92678 221.023 10.1025C221.207 10.2782 221.321 10.5167 221.34 10.7714C221.334 10.9533 221.282 11.1308 221.191 11.2876C221.099 11.4444 220.969 11.5756 220.814 11.6691C220.601 11.7969 220.36 11.8696 220.112 11.8803C219.957 11.8825 219.801 11.8449 219.664 11.7711C219.526 11.6972 219.409 11.5895 219.324 11.4579C219.224 11.2998 219.169 11.1171 219.166 10.9299C219.171 10.748 219.223 10.5706 219.315 10.4138C219.407 10.2569 219.537 10.1258 219.692 10.0322ZM219.617 11.4098C219.726 11.5186 219.872 11.5801 220.026 11.581V11.5634C220.214 11.5354 220.394 11.4631 220.551 11.3522C220.674 11.2982 220.78 11.2098 220.854 11.0974C220.929 10.9851 220.97 10.8535 220.972 10.7185C220.961 10.6064 220.925 10.4981 220.867 10.4018C220.816 10.3208 220.747 10.254 220.664 10.2078C220.582 10.1615 220.489 10.1374 220.393 10.1378C220.207 10.141 220.025 10.1958 219.867 10.2962C219.75 10.3752 219.652 10.4793 219.579 10.601C219.506 10.7227 219.461 10.859 219.447 11.0002C219.448 11.154 219.509 11.3012 219.617 11.4098Z" fill="white"/>
<path fill-rule="evenodd" clip-rule="evenodd" d="M213.892 5.68598C214.074 5.53262 214.302 5.4453 214.539 5.43819V5.42059C214.702 5.40646 214.867 5.44478 215.009 5.53009C215.151 5.6154 215.262 5.74337 215.327 5.89579C215.392 6.06436 215.428 6.24302 215.432 6.4238C215.443 6.64349 215.394 6.86189 215.293 7.0567C215.191 7.25149 215.04 7.41573 214.854 7.53263C214.723 7.59855 214.579 7.63461 214.434 7.63823C214.262 7.64862 214.092 7.60932 213.943 7.52504C213.794 7.44076 213.672 7.31506 213.591 7.16303C213.527 6.99446 213.491 6.8158 213.486 6.63502C213.477 6.51518 213.495 6.39472 213.539 6.28301C213.587 6.04973 213.711 5.83933 213.892 5.68598ZM214.142 7.19269C214.227 7.25017 214.33 7.27693 214.433 7.26867C214.906 7.26867 215.117 6.68786 215.169 6.37105V6.31825C215.174 6.23822 215.163 6.15805 215.136 6.0825C215.109 6.00695 215.067 5.93756 215.014 5.87846C214.959 5.81936 214.894 5.77175 214.822 5.73846C214.749 5.70516 214.67 5.68686 214.591 5.68464C214.117 5.68464 213.855 6.23025 213.855 6.58225C213.865 6.71123 213.901 6.83685 213.96 6.95186C213.992 7.05038 214.056 7.13522 214.142 7.19269Z" fill="white"/>
<path d="M202.71 14.4146L200.659 13.8339L201.027 12.6687L201.29 12.7251L201.027 13.5699L201.605 13.7247L201.816 12.9891L202.079 13.0418L201.869 13.8339L202.5 13.9887L202.762 13.1439L203.026 13.2531L202.71 14.4146Z" fill="white"/>
<path d="M203.289 8.71232C203.436 8.53825 203.643 8.42533 203.868 8.39551L203.92 8.65952C203.758 8.67458 203.608 8.74994 203.499 8.87072C203.434 8.94305 203.396 9.03684 203.394 9.13472C203.394 9.18752 203.447 9.29313 203.499 9.29313C203.658 9.39873 203.868 9.29313 204.025 9.24032C204.176 9.18018 204.336 9.14453 204.499 9.13472C204.565 9.13524 204.631 9.1496 204.691 9.17687C204.751 9.20415 204.805 9.24374 204.849 9.29313C204.923 9.3464 204.982 9.41851 205.018 9.50205C205.056 9.58558 205.07 9.67749 205.059 9.76833C205.058 9.85763 205.039 9.94568 205.002 10.0273C204.966 10.1089 204.914 10.1824 204.849 10.2435C204.77 10.3357 204.673 10.4111 204.565 10.4655C204.457 10.5199 204.339 10.5521 204.218 10.5603L204.166 10.2963C204.348 10.2621 204.514 10.1695 204.639 10.0323C204.704 9.96 204.742 9.8662 204.744 9.76833C204.743 9.72749 204.733 9.68734 204.715 9.6508C204.697 9.61426 204.671 9.58226 204.639 9.55713C204.599 9.52383 204.549 9.50736 204.499 9.51137C204.343 9.50704 204.192 9.56389 204.078 9.66977C203.815 9.77537 203.552 9.88098 203.289 9.61697C203.169 9.50755 203.094 9.35684 203.079 9.19457C203.08 9.10526 203.099 9.01721 203.136 8.93559C203.172 8.85398 203.224 8.78045 203.289 8.71936" fill="white"/>
<path fill-rule="evenodd" clip-rule="evenodd" d="M220.85 20.0609L220.06 19.6913L220.131 19.3745L222.077 20.2193L221.866 20.6945C221.708 21.064 221.551 21.2753 221.234 21.2753C221.126 21.2773 221.02 21.2487 220.927 21.1926C220.834 21.1366 220.759 21.0555 220.709 20.9585C220.668 20.8966 220.648 20.8217 220.657 20.7473V20.6945C220.63 20.6945 220.617 20.7079 220.603 20.7211C220.59 20.7343 220.577 20.7473 220.551 20.7473C220.452 20.7904 220.344 20.8085 220.236 20.8002H219.535L219.693 20.4833H220.324C220.639 20.4833 220.691 20.4305 220.796 20.1665L220.85 20.0609ZM221.134 20.8467C221.19 20.8841 221.256 20.9046 221.322 20.9057C221.48 20.9585 221.586 20.8529 221.743 20.5361L221.796 20.3777L221.165 20.1137L221.112 20.2193C221.053 20.3343 221.017 20.46 221.007 20.5889V20.6945C221.034 20.7563 221.078 20.8092 221.134 20.8467Z" fill="white"/>
<path fill-rule="evenodd" clip-rule="evenodd" d="M218.605 22.5423C218.611 22.2263 218.737 21.9242 218.956 21.6975L219.289 21.3279L220.972 22.6479L220.603 23.1232C220.236 23.5455 220.026 23.6512 219.71 23.6512C219.421 23.6382 219.147 23.5172 218.944 23.3121C218.739 23.1069 218.618 22.8323 218.605 22.5423ZM219.43 23.2858C219.512 23.3225 219.602 23.3392 219.692 23.3345C220.007 23.3345 220.164 23.1767 220.427 22.9136L220.428 22.9121L220.533 22.8065L219.324 21.856L219.166 22.0145C219.081 22.0809 219.011 22.1672 218.966 22.2661C218.92 22.3651 218.898 22.4737 218.904 22.5826C218.909 22.6916 218.94 22.7977 218.995 22.8918C219.05 22.9859 219.127 23.0653 219.219 23.1233C219.276 23.1933 219.348 23.2491 219.43 23.2858Z" fill="white"/>
<path fill-rule="evenodd" clip-rule="evenodd" d="M223.78 16.3156C223.78 14.2119 223.239 12.1439 222.208 10.3124C221.177 8.48097 219.692 6.94835 217.897 5.86346C216.102 4.77859 214.058 4.17832 211.963 4.12099C209.87 4.06365 207.795 4.5512 205.945 5.53627C204.094 6.52133 202.527 7.97043 201.399 9.74277C200.27 11.5151 199.617 13.5505 199.504 15.651C199.389 17.7516 199.819 19.8461 200.75 21.7308C201.68 23.6157 203.08 25.2268 204.814 26.4076C205.016 27.1428 205.501 27.7673 206.161 28.1434C206.822 28.5197 207.605 28.6171 208.337 28.4141C208.449 28.4031 208.557 28.367 208.652 28.3084C209.099 28.4627 209.557 28.5863 210.02 28.6781C209.894 29.0267 209.736 29.3626 209.547 29.6813L209.81 29.9453C209.872 29.9033 209.946 29.8846 210.02 29.8924C210.137 29.9023 210.247 29.9571 210.325 30.0456C210.403 30.134 210.445 30.2494 210.441 30.3677C210.433 30.4772 210.386 30.5805 210.309 30.6581C210.232 30.7358 210.129 30.7827 210.02 30.7901C209.912 30.7856 209.809 30.7542 209.716 30.6989C209.625 30.6435 209.548 30.5659 209.494 30.4733C209.451 30.6278 209.432 30.7883 209.441 30.9484C209.441 31.8461 210.388 32.8494 211.703 33.2717C213.014 32.8494 213.96 31.8461 213.96 30.9484C213.969 30.7883 213.951 30.6278 213.908 30.4733C213.775 30.6378 213.589 30.75 213.382 30.7901C213.263 30.8111 213.142 30.784 213.043 30.7146C212.945 30.6453 212.877 30.5395 212.856 30.4204C212.835 30.3014 212.862 30.1789 212.931 30.0799C213 29.9809 213.105 29.9134 213.224 29.8924H213.329C213.434 29.8924 213.487 29.8924 213.539 29.9453L213.803 29.6813L213.487 28.7309C215.599 28.4806 217.554 27.4894 219.009 25.9324C220.487 24.8066 221.687 23.3529 222.516 21.6848C223.343 20.0168 223.776 18.1793 223.78 16.3156ZM207.481 28.1395C206.812 28.1395 206.17 27.8725 205.696 27.3972C205.224 26.9219 204.957 26.2773 204.957 25.6051C204.957 25.1797 205.065 24.7613 205.273 24.3907L205.694 24.7602C205.574 25.0272 205.504 25.3132 205.483 25.6051C205.482 25.9781 205.584 26.3441 205.78 26.6616C205.975 26.9789 206.255 27.2349 206.588 27.4003C207.018 27.6643 207.476 27.877 207.955 28.0339C207.813 28.1186 207.646 28.1556 207.481 28.1395ZM210.058 24.3379C210.56 24.4454 211.071 24.4986 211.584 24.4962H211.601C212.873 24.4931 214.127 24.1961 215.267 23.6285C216.406 23.0608 217.399 22.2377 218.171 21.2226C219.136 19.9278 219.696 18.3749 219.782 16.7604C219.867 15.1459 219.475 13.5421 218.653 12.1513C217.833 10.7606 216.619 9.64546 215.167 8.94669C213.715 8.24791 212.089 7.99687 210.496 8.22525C208.901 8.45363 207.41 9.15119 206.211 10.2299C205.011 11.3086 204.157 12.7198 203.755 14.2857C203.355 15.8515 203.424 17.5016 203.957 19.0277C204.489 20.5536 205.459 21.887 206.746 22.8594C206.986 22.7947 207.233 22.7592 207.482 22.7539C208.015 22.7533 208.538 22.9011 208.993 23.1806C209.448 23.4603 209.816 23.8608 210.058 24.3379ZM213.438 24.6546L213.436 24.6575C212.814 24.7611 212.241 24.8135 211.615 24.8658C211.478 24.8694 211.343 24.9047 211.222 24.9688C211.1 25.0328 210.995 25.124 210.914 25.2355C211.595 25.5363 212.299 25.7835 213.018 25.9746C213.028 25.5042 213.173 25.0468 213.436 24.6575L213.453 24.6546H213.438ZM210.661 24.9657C210.714 24.9024 210.759 24.8468 210.827 24.8129C210.662 24.7893 210.487 24.7552 210.307 24.72C210.083 24.6763 209.85 24.631 209.617 24.6017C209.78 24.7071 210.006 24.8125 210.231 24.9179C210.344 24.9709 210.458 25.0239 210.563 25.0769C210.601 25.039 210.632 25.0012 210.661 24.9657ZM207.514 23.1233C207.927 23.1246 208.334 23.226 208.701 23.4191C209.066 23.6121 209.381 23.891 209.617 24.2322C209.213 24.1472 208.824 24.005 208.46 23.8098C208.194 23.6902 207.909 23.6187 207.619 23.5986C207.299 23.6001 206.985 23.6776 206.703 23.8244C206.419 23.9713 206.174 24.1833 205.988 24.4434C205.909 24.3906 205.83 24.3509 205.751 24.3113L205.751 24.3113C205.673 24.2717 205.594 24.2322 205.515 24.1794C205.739 23.8556 206.038 23.5907 206.386 23.4069C206.734 23.2231 207.12 23.1259 207.514 23.1233ZM212.706 29.7875C212.86 29.6516 213.058 29.5763 213.263 29.5755H213.246C213.188 29.3329 213.153 29.0855 213.14 28.8364C212.74 28.8816 212.337 28.8992 211.934 28.8892C211.387 28.8913 210.84 28.8383 210.304 28.7308C210.208 29.0039 210.091 29.2688 209.953 29.5228C210.161 29.5282 210.358 29.6132 210.505 29.7607C210.652 29.9081 210.736 30.1064 210.742 30.3148V30.3676C210.714 30.572 210.613 30.7594 210.459 30.8952C210.305 31.0311 210.106 31.1062 209.901 31.1068H209.691C209.796 31.7932 210.584 32.5853 211.584 32.902C212.583 32.5325 213.368 31.846 213.473 31.1596H213.21C213.004 31.1534 212.806 31.0678 212.661 30.9205C212.515 30.7733 212.43 30.5754 212.425 30.3676V30.3148C212.452 30.1107 212.551 29.9234 212.706 29.7875ZM211.882 28.5197C210.114 28.4708 208.384 28.0002 206.833 27.1468C206.553 27.001 206.317 26.7817 206.15 26.5121C205.984 26.2426 205.893 25.9328 205.887 25.6157C205.896 25.4009 205.931 25.1882 205.992 24.982C206.427 25.3748 206.897 25.7282 207.395 26.038C207.456 26.08 207.531 26.0988 207.605 26.0908C207.652 26.0909 207.699 26.0813 207.743 26.0624C207.787 26.0437 207.827 26.0162 207.859 25.9817C207.892 25.9471 207.918 25.9061 207.934 25.8613C207.95 25.8167 207.957 25.769 207.955 25.7212C207.951 25.6431 207.923 25.5681 207.877 25.5054C207.83 25.4428 207.766 25.3955 207.693 25.3692C207.162 25.1698 206.652 24.9224 206.167 24.6301C206.391 24.3269 206.71 24.1093 207.075 24.0134C207.438 23.9174 207.822 23.9486 208.165 24.1021L208.586 24.3661C209.989 25.2637 213.684 27.4812 218.101 26.2669C216.399 27.7806 214.186 28.5862 211.913 28.5197H211.882ZM213.329 26.0205C215.127 26.445 217.01 26.3349 218.745 25.7037H218.777C219.731 25.0206 220.581 24.2025 221.302 23.2749C222.679 21.3798 223.466 19.1172 223.562 16.773C223.66 14.429 223.062 12.1086 221.846 10.1054C220.63 8.10218 218.849 6.50617 216.729 5.51915C214.61 4.53214 212.245 4.19844 209.937 4.56025C207.628 4.92207 205.478 5.96316 203.759 7.55186C202.04 9.14056 200.828 11.2056 200.277 13.4857C199.726 15.7658 199.861 18.1586 200.665 20.3616C201.47 22.5645 202.905 24.4787 204.793 25.8622V25.5982C204.746 25.0801 204.869 24.561 205.144 24.1197C204.979 24.0066 204.835 23.8632 204.722 23.6973L204.775 23.6445C204.906 23.7626 205.046 23.8687 205.196 23.9613C205.509 23.53 205.925 23.1849 206.406 22.9581C204.886 21.7666 203.811 20.0968 203.351 18.2172C202.89 16.3375 203.074 14.3572 203.87 12.5946C204.667 10.832 206.03 9.38944 207.742 8.49886C209.453 7.60829 211.412 7.32142 213.307 7.68437C215.2 8.04733 216.916 9.03901 218.181 10.5C219.445 11.961 220.184 13.8065 220.277 15.7397C220.371 17.6729 219.815 19.5817 218.697 21.159C217.581 22.7364 215.967 23.8907 214.118 24.4365C213.68 24.5421 213.382 25.3342 213.329 26.0205Z" fill="white"/>
</svg>
