<svg width="21" height="20" viewBox="0 0 21 20" fill="none" xmlns="http://www.w3.org/2000/svg">
<path d="M16.3159 9.43153C15.8106 9.43153 15.3895 9.85259 15.3895 10.3579V18.1684H1.83159V4.61045H9.64215C10.1474 4.61045 10.5685 4.1894 10.5685 3.68413C10.5685 3.17887 10.1474 2.75781 9.64215 2.75781H0.92632C0.421055 2.75781 0 3.17887 0 3.68413V19.0737C0 19.579 0.421055 20 0.92632 20H16.3159C16.8211 20 17.2422 19.579 17.2422 19.0737V10.3368C17.2422 9.83153 16.8211 9.43153 16.3159 9.43153Z" fill="white"/>
<path d="M19.0743 0H13.5374C13.0321 0 12.6111 0.421055 12.6111 0.926321C12.6111 1.43159 13.0321 1.85264 13.5374 1.85264H16.8637L7.39 11.3264C7.03211 11.6843 7.03211 12.2737 7.39 12.6316C7.57948 12.8211 7.81106 12.9053 8.04264 12.9053C8.27422 12.9053 8.5058 12.8211 8.69527 12.6316L18.169 3.15791V6.48424C18.169 6.98951 18.5901 7.41056 19.0953 7.41056C19.6006 7.41056 20.0216 6.98951 20.0216 6.48424V0.926321C20.0006 0.421055 19.5795 0 19.0743 0Z" fill="white"/>
</svg>
